<svg width="139" height="129" viewBox="0 0 139 129" fill="none" xmlns="http://www.w3.org/2000/svg">
<path d="M92.576 16.9902H116.826C121.272 16.9902 125.037 13.5049 125.151 9.06072C125.27 4.46449 121.579 0.701172 117.01 0.701172H92.7595C88.3139 0.701172 84.5487 4.18649 84.4344 8.63069C84.3158 13.2269 88.0063 16.9902 92.576 16.9902Z" fill="#6B5C59"/>
<path d="M21.9902 16.9902H46.4238C50.9221 16.9902 54.5684 13.3439 54.5684 8.8457C54.5684 4.34748 50.9221 0.701172 46.4238 0.701172H21.9902C17.492 0.701172 13.8457 4.34748 13.8457 8.8457C13.8457 13.3439 17.492 16.9902 21.9902 16.9902Z" fill="#AF8663"/>
<path d="M91.2188 128.299H88.5039C80.6311 128.299 73.6665 124.336 69.5 118.3C65.3335 124.336 58.3689 128.299 50.4961 128.299H47.7812C30.5662 128.299 16.5605 114.293 16.5605 97.0781C16.5605 95.7267 17.2308 94.4637 18.3499 93.706C19.4687 92.9483 20.8907 92.7955 22.1453 93.2972L27.1414 95.2956C31.0736 96.8685 35.5704 96.2018 38.8774 93.5564C43.6981 89.7 49.7525 87.5762 55.9258 87.5762C57.3025 87.5762 58.6849 87.7396 60.035 88.0621C60.6455 88.2079 61.2138 88.4927 61.6959 88.8945L69.5 95.3971L77.3038 88.8942C77.786 88.4927 78.3545 88.2076 78.965 88.0619C80.3151 87.7396 81.6978 87.5762 83.0742 87.5762C89.2475 87.5762 95.3019 89.7 100.122 93.5564C103.43 96.202 107.926 96.8685 111.859 95.2956H111.859L116.854 93.2972C118.109 92.7955 119.531 92.948 120.65 93.706C121.769 94.4635 122.439 95.7267 122.439 97.0781C122.439 114.293 108.434 128.299 91.2188 128.299Z" fill="#AF8663"/>
<path d="M120.65 93.706C119.531 92.948 118.11 92.7955 116.855 93.2972L111.859 95.2956H111.859C107.926 96.8683 103.43 96.202 100.123 93.5564C95.3019 89.7 89.2475 87.5762 83.0742 87.5762C81.6978 87.5762 80.3151 87.7396 78.965 88.0621C78.3545 88.2079 77.786 88.4927 77.3038 88.8945L69.5 95.3971V118.3C73.6665 124.336 80.6311 128.299 88.5039 128.299H91.2188C108.434 128.299 122.439 114.293 122.439 97.0781C122.439 95.7267 121.769 94.4635 120.65 93.706Z" fill="#6B5C59"/>
<path d="M69.5 103.865C62.5169 103.865 56.6382 99.0472 55.0139 92.5604C48.527 90.9361 43.709 85.0573 43.709 78.0742C43.709 70.2981 49.6833 63.8913 57.2832 63.2037V37.3516C57.2832 30.6152 62.7637 25.1348 69.5 25.1348C76.2363 25.1348 81.7168 30.6152 81.7168 37.3516V63.2037C89.3167 63.8913 95.291 70.2981 95.291 78.0742C95.291 85.0573 90.473 90.9361 83.9861 92.5604C82.3618 99.0472 76.4831 103.865 69.5 103.865Z" fill="#F2D1A5"/>
<path d="M81.7168 63.2037V37.3516C81.7168 30.6152 76.2363 25.1348 69.5 25.1348V103.865C76.4831 103.865 82.3618 99.0472 83.9861 92.5604C90.473 90.9361 95.291 85.0573 95.291 78.0742C95.291 70.2981 89.3167 63.8913 81.7168 63.2037Z" fill="#F2BB88"/>
<path d="M134.928 41.4238H129.227C126.978 41.4238 125.154 39.6005 125.154 37.3516C125.154 35.1026 126.978 33.2793 129.227 33.2793H134.928C137.177 33.2793 139 35.1026 139 37.3516C139 39.6005 137.177 41.4238 134.928 41.4238Z" fill="#2E2654"/>
<path d="M9.77344 41.4238H4.07227C1.82329 41.4238 0 39.6005 0 37.3516C0 35.1026 1.82329 33.2793 4.07227 33.2793H9.77344C12.0224 33.2793 13.8457 35.1026 13.8457 37.3516C13.8457 39.6005 12.0224 41.4238 9.77344 41.4238Z" fill="#2E2654"/>
<path d="M69.5 22.4199C61.2667 22.4199 54.5684 29.1183 54.5684 37.3516V41.4238L62.7129 37.3516C62.7129 33.6092 65.7576 30.5645 69.5 30.5645C73.2424 30.5645 76.2871 33.6092 76.2871 37.3516L84.4316 41.4238V37.3516C84.4316 29.1183 77.7333 22.4199 69.5 22.4199Z" fill="#453D81"/>
<path d="M69.5 22.4199V30.5645C73.2424 30.5645 76.2871 33.6092 76.2871 37.3516L84.4316 41.4238V37.3516C84.4316 29.1183 77.7333 22.4199 69.5 22.4199Z" fill="#2E2654"/>
<path d="M104.793 61.7852C118.287 61.7852 129.227 50.846 129.227 37.3516V31.9219C129.227 25.9245 124.365 21.0625 118.367 21.0625H91.2188C85.2214 21.0625 80.3594 25.9245 80.3594 31.9219V37.3516C80.3594 50.846 91.2986 61.7852 104.793 61.7852Z" fill="#6BA7FF"/>
<path d="M34.207 61.7852C20.7126 61.7852 9.77344 50.846 9.77344 37.3516V31.9219C9.77344 25.9245 14.6355 21.0625 20.6328 21.0625H47.7812C53.7786 21.0625 58.6406 25.9245 58.6406 31.9219V37.3516C58.6406 50.846 47.7014 61.7852 34.207 61.7852Z" fill="#ACCEFF"/>
<path d="M104.793 65.8574C89.0748 65.8574 76.2871 53.0697 76.2871 37.3516V31.9219C76.2871 23.6886 82.9854 16.9902 91.2188 16.9902H118.367C126.6 16.9902 133.299 23.6886 133.299 31.9219V37.3516C133.299 53.0697 120.511 65.8574 104.793 65.8574ZM91.2188 25.1348C87.4763 25.1348 84.4316 28.1795 84.4316 31.9219V37.3516C84.4316 48.5788 93.5657 57.7129 104.793 57.7129C116.02 57.7129 125.154 48.5788 125.154 37.3516V31.9219C125.154 28.1795 122.11 25.1348 118.367 25.1348H91.2188Z" fill="#453D81"/>
<path d="M34.207 65.8574C18.4889 65.8574 5.70117 53.0697 5.70117 37.3516V31.9219C5.70117 23.6886 12.3995 16.9902 20.6328 16.9902H47.7812C56.0146 16.9902 62.7129 23.6886 62.7129 31.9219V37.3516C62.7129 53.0697 49.9252 65.8574 34.207 65.8574ZM20.6328 25.1348C16.8904 25.1348 13.8457 28.1795 13.8457 31.9219V37.3516C13.8457 48.5788 22.9798 57.7129 34.207 57.7129C45.4343 57.7129 54.5684 48.5788 54.5684 37.3516V31.9219C54.5684 28.1795 51.5237 25.1348 47.7812 25.1348H20.6328Z" fill="#6B61B1"/>
</svg>
