<svg viewBox="0 0 20 20" >
<path d="M19.3597 14.3507H17.0638V6.74208C17.0638 6.38849 16.7774 6.10213 16.4238 6.10213C16.0702 6.10213 15.7835 6.38849 15.7835 6.74208V15.1168C15.7835 15.4756 15.4263 15.7788 15.0013 15.7839C14.9976 15.7839 14.9941 15.7834 14.9904 15.7834C14.9834 15.7834 14.9767 15.7842 14.9697 15.7845H12.516C12.5091 15.7842 12.5024 15.7834 12.4954 15.7834C12.4884 15.7834 12.4817 15.7842 12.4748 15.7845H10.0204C10.0135 15.7842 10.0067 15.7834 9.99979 15.7834C9.99283 15.7834 9.98611 15.7842 9.9792 15.7845H7.5251C7.51819 15.7842 7.51147 15.7834 7.50452 15.7834C7.49756 15.7834 7.49084 15.7842 7.48393 15.7845H5.02983C5.02292 15.7842 5.0162 15.7834 5.00925 15.7834C5.00554 15.7834 5.00194 15.7839 4.99827 15.7839C4.57293 15.7788 4.2161 15.4756 4.2161 15.1168V4.88433C4.2161 4.52243 4.57941 4.21665 5.00925 4.21665H14.9904C15.4202 4.21665 15.7835 4.52243 15.7835 4.88433V5.00984C15.7835 5.36343 16.0702 5.64979 16.4238 5.64979H19.3597C19.7133 5.64979 20 5.36343 20 5.00984C20 4.65625 19.7133 4.36989 19.3597 4.36989H16.9902C16.8058 3.7381 16.2902 3.23397 15.6306 3.03226V1.0003C15.6306 0.646714 15.3439 0.360352 14.9903 0.360352C14.6367 0.360352 14.3504 0.646714 14.3504 1.0003V2.93675H13.1353V1.0003C13.1353 0.646714 12.849 0.360352 12.4954 0.360352C12.1418 0.360352 11.8551 0.646714 11.8551 1.0003V2.93675H10.6397V1.0003C10.6397 0.646714 10.353 0.360352 9.99971 0.360352C9.64643 0.360352 9.35976 0.646714 9.35976 1.0003V2.93675H8.14435V1.0003C8.14435 0.646714 7.85767 0.360352 7.5044 0.360352C7.15112 0.360352 6.86445 0.646714 6.86445 1.0003V2.93675H5.64904V1.0003C5.64904 0.646714 5.36268 0.360352 5.00909 0.360352C4.6555 0.360352 4.36914 0.646714 4.36914 1.0003V3.03214C3.70962 3.2337 3.19444 3.73779 3.00999 4.36954H0.63995C0.286675 4.36954 0 4.65586 0 5.00949C0 5.36308 0.286675 5.64944 0.63995 5.64944H2.93624V14.3507H0.63995C0.286675 14.3507 0 14.637 0 14.9906C0 15.3442 0.286675 15.6305 0.63995 15.6305H3.0101C3.19451 16.2623 3.7097 16.7665 4.3693 16.9682V18.9994C4.3693 19.353 4.65566 19.6394 5.00925 19.6394C5.36248 19.6394 5.6492 19.353 5.6492 18.9994V17.0636H6.86461V18.9994C6.86461 19.3529 7.15097 19.6393 7.50456 19.6393C7.85779 19.6393 8.14451 19.3529 8.14451 18.9994V17.0636H9.35991V18.9994C9.35991 19.3529 9.64628 19.6393 9.99986 19.6393C10.3535 19.6393 10.6398 19.3529 10.6398 18.9994V17.0636H11.8552V18.9994C11.8552 19.3529 12.1419 19.6393 12.4955 19.6393C12.8488 19.6393 13.1355 19.3529 13.1355 18.9994V17.0636H14.3505V18.9994C14.3505 19.3529 14.6369 19.6393 14.9905 19.6393C15.3441 19.6393 15.6308 19.3529 15.6308 18.9994V16.9681C16.2904 16.7665 16.8055 16.2623 16.9899 15.6305H19.3598C19.7131 15.6305 20.0001 15.3442 20.0001 14.9906C20 14.637 19.7133 14.3507 19.3597 14.3507Z"/>
<path d="M19.3595 11.8552H18.1185C17.7649 11.8552 17.4785 12.1416 17.4785 12.4952C17.4785 12.8488 17.7649 13.1351 18.1185 13.1351H19.3595C19.7127 13.1351 19.9998 12.8488 19.9998 12.4952C19.9998 12.1416 19.7131 11.8552 19.3595 11.8552Z"/>
<path d="M19.3595 9.35962H18.1185C17.7649 9.35962 17.4785 9.64598 17.4785 9.99957C17.4785 10.3532 17.7649 10.6395 18.1185 10.6395H19.3595C19.7127 10.6395 19.9998 10.3532 19.9998 9.99957C19.9998 9.64598 19.7131 9.35962 19.3595 9.35962Z"/>
<path d="M19.3595 6.86426H18.1185C17.7649 6.86426 17.4785 7.15062 17.4785 7.50421C17.4785 7.85779 17.7649 8.14416 18.1185 8.14416H19.3595C19.7127 8.14416 19.9998 7.85779 19.9998 7.50421C19.9998 7.15062 19.7131 6.86426 19.3595 6.86426Z"/>
<path d="M0.63995 13.1351H1.88133C2.23457 13.1351 2.52128 12.8488 2.52128 12.4952C2.52128 12.1416 2.23492 11.8552 1.88133 11.8552H0.63995C0.286675 11.8552 0 12.1419 0 12.4952C0 12.8484 0.286675 13.1351 0.63995 13.1351Z"/>
<path d="M0.63995 10.6397H1.88133C2.23457 10.6397 2.52128 10.3536 2.52128 10.0001C2.52128 9.64647 2.23492 9.36011 1.88133 9.36011H0.63995C0.286675 9.36011 0 9.64678 0 10.0001C0 10.3533 0.286675 10.6397 0.63995 10.6397Z"/>
<path d="M0.63995 8.14416H1.88133C2.23457 8.14416 2.52128 7.85779 2.52128 7.50421C2.52128 7.15062 2.23492 6.86426 1.88133 6.86426H0.63995C0.286675 6.86426 0 7.15062 0 7.50421C0 7.85779 0.286675 8.14416 0.63995 8.14416Z"/>
<path d="M7.93272 6.65088C7.6689 6.65088 7.43214 6.81244 7.33644 7.05822L5.22355 12.4762C5.09527 12.8059 5.25788 13.1768 5.58721 13.3051C5.9169 13.4333 6.28783 13.2704 6.41607 12.9414L6.75133 12.0817H9.11411L9.44937 12.9414C9.54781 13.1945 9.78945 13.3491 10.0456 13.3491C10.1229 13.3491 10.2016 13.3349 10.2782 13.3051C10.6072 13.1768 10.7705 12.8055 10.6419 12.4762L8.529 7.05822C8.43295 6.81244 8.19654 6.65088 7.93272 6.65088ZM7.25043 10.8018L7.93272 9.0522L8.61501 10.8018H7.25043Z"/>
<path d="M13.6213 7.93078C13.9745 7.93078 14.2616 7.64442 14.2616 7.29083C14.2616 6.93724 13.9749 6.65088 13.6213 6.65088H11.8294C11.4758 6.65088 11.1895 6.93724 11.1895 7.29083C11.1895 7.64442 11.4758 7.93078 11.8294 7.93078H12.0853V12.0692H11.8294C11.4758 12.0692 11.1895 12.3556 11.1895 12.7092C11.1895 13.0628 11.4758 13.3491 11.8294 13.3491H13.6213C13.9745 13.3491 14.2616 13.0628 14.2616 12.7092C14.2616 12.3556 13.9749 12.0692 13.6213 12.0692H13.3658V7.93078H13.6213Z"/>
</svg>
