<svg width="28" height="24" viewBox="0 0 28 24" fill="none" xmlns="http://www.w3.org/2000/svg">
<rect x="0.277778" y="0.277778" width="27.4444" height="23.4444" rx="3.05556" fill="url(#paint0_radial_3764_65926)" fill-opacity="0.1" stroke="url(#paint1_linear_3764_65926)" stroke-width="0.555556"/>
<g clip-path="url(#clip0_3764_65926)">
<path d="M23.3597 16.3507H21.0638V8.74208C21.0638 8.38849 20.7774 8.10213 20.4238 8.10213C20.0702 8.10213 19.7835 8.38849 19.7835 8.74208V17.1168C19.7835 17.4756 19.4263 17.7788 19.0013 17.7839C18.9976 17.7839 18.9941 17.7834 18.9904 17.7834C18.9834 17.7834 18.9767 17.7842 18.9697 17.7845H16.516C16.5091 17.7842 16.5024 17.7834 16.4954 17.7834C16.4884 17.7834 16.4817 17.7842 16.4748 17.7845H14.0204C14.0135 17.7842 14.0067 17.7834 13.9998 17.7834C13.9928 17.7834 13.9861 17.7842 13.9792 17.7845H11.5251C11.5182 17.7842 11.5115 17.7834 11.5045 17.7834C11.4976 17.7834 11.4908 17.7842 11.4839 17.7845H9.02983C9.02292 17.7842 9.0162 17.7834 9.00925 17.7834C9.00554 17.7834 9.00194 17.7839 8.99827 17.7839C8.57293 17.7788 8.2161 17.4756 8.2161 17.1168V6.88433C8.2161 6.52243 8.57941 6.21665 9.00925 6.21665H18.9904C19.4202 6.21665 19.7835 6.52243 19.7835 6.88433V7.00984C19.7835 7.36343 20.0702 7.64979 20.4238 7.64979H23.3597C23.7133 7.64979 24 7.36343 24 7.00984C24 6.65625 23.7133 6.36989 23.3597 6.36989H20.9902C20.8058 5.7381 20.2902 5.23397 19.6306 5.03226V3.0003C19.6306 2.64671 19.3439 2.36035 18.9903 2.36035C18.6367 2.36035 18.3504 2.64671 18.3504 3.0003V4.93675H17.1353V3.0003C17.1353 2.64671 16.849 2.36035 16.4954 2.36035C16.1418 2.36035 15.8551 2.64671 15.8551 3.0003V4.93675H14.6397V3.0003C14.6397 2.64671 14.353 2.36035 13.9997 2.36035C13.6464 2.36035 13.3598 2.64671 13.3598 3.0003V4.93675H12.1443V3.0003C12.1443 2.64671 11.8577 2.36035 11.5044 2.36035C11.1511 2.36035 10.8644 2.64671 10.8644 3.0003V4.93675H9.64904V3.0003C9.64904 2.64671 9.36268 2.36035 9.00909 2.36035C8.6555 2.36035 8.36914 2.64671 8.36914 3.0003V5.03214C7.70962 5.2337 7.19444 5.73779 7.00999 6.36954H4.63995C4.28667 6.36954 4 6.65586 4 7.00949C4 7.36308 4.28667 7.64944 4.63995 7.64944H6.93624V16.3507H4.63995C4.28667 16.3507 4 16.637 4 16.9906C4 17.3442 4.28667 17.6305 4.63995 17.6305H7.0101C7.19451 18.2623 7.7097 18.7665 8.3693 18.9682V20.9994C8.3693 21.353 8.65566 21.6394 9.00925 21.6394C9.36248 21.6394 9.6492 21.353 9.6492 20.9994V19.0636H10.8646V20.9994C10.8646 21.3529 11.151 21.6393 11.5046 21.6393C11.8578 21.6393 12.1445 21.3529 12.1445 20.9994V19.0636H13.3599V20.9994C13.3599 21.3529 13.6463 21.6393 13.9999 21.6393C14.3535 21.6393 14.6398 21.3529 14.6398 20.9994V19.0636H15.8552V20.9994C15.8552 21.3529 16.1419 21.6393 16.4955 21.6393C16.8488 21.6393 17.1355 21.3529 17.1355 20.9994V19.0636H18.3505V20.9994C18.3505 21.3529 18.6369 21.6393 18.9905 21.6393C19.3441 21.6393 19.6308 21.3529 19.6308 20.9994V18.9681C20.2904 18.7665 20.8055 18.2623 20.9899 17.6305H23.3598C23.7131 17.6305 24.0001 17.3442 24.0001 16.9906C24 16.637 23.7133 16.3507 23.3597 16.3507Z" fill="url(#paint2_linear_3764_65926)"/>
<path d="M23.3595 13.8552H22.1185C21.7649 13.8552 21.4785 14.1416 21.4785 14.4952C21.4785 14.8488 21.7649 15.1351 22.1185 15.1351H23.3595C23.7127 15.1351 23.9998 14.8488 23.9998 14.4952C23.9998 14.1416 23.7131 13.8552 23.3595 13.8552Z" fill="url(#paint3_linear_3764_65926)"/>
<path d="M23.3595 11.3596H22.1185C21.7649 11.3596 21.4785 11.646 21.4785 11.9996C21.4785 12.3532 21.7649 12.6395 22.1185 12.6395H23.3595C23.7127 12.6395 23.9998 12.3532 23.9998 11.9996C23.9998 11.646 23.7131 11.3596 23.3595 11.3596Z" fill="url(#paint4_linear_3764_65926)"/>
<path d="M23.3595 8.8645H22.1185C21.7649 8.8645 21.4785 9.15086 21.4785 9.50445C21.4785 9.85804 21.7649 10.1444 22.1185 10.1444H23.3595C23.7127 10.1444 23.9998 9.85804 23.9998 9.50445C23.9998 9.15086 23.7131 8.8645 23.3595 8.8645Z" fill="url(#paint5_linear_3764_65926)"/>
<path d="M4.63995 15.1351H5.88133C6.23457 15.1351 6.52128 14.8488 6.52128 14.4952C6.52128 14.1416 6.23492 13.8552 5.88133 13.8552H4.63995C4.28667 13.8552 4 14.1419 4 14.4952C4 14.8484 4.28667 15.1351 4.63995 15.1351Z" fill="url(#paint6_linear_3764_65926)"/>
<path d="M4.63995 12.6397H5.88133C6.23457 12.6397 6.52128 12.3536 6.52128 12.0001C6.52128 11.6465 6.23492 11.3601 5.88133 11.3601H4.63995C4.28667 11.3601 4 11.6468 4 12.0001C4 12.3533 4.28667 12.6397 4.63995 12.6397Z" fill="url(#paint7_linear_3764_65926)"/>
<path d="M4.63995 10.1444H5.88133C6.23457 10.1444 6.52128 9.85804 6.52128 9.50445C6.52128 9.15086 6.23492 8.8645 5.88133 8.8645H4.63995C4.28667 8.8645 4 9.15086 4 9.50445C4 9.85804 4.28667 10.1444 4.63995 10.1444Z" fill="url(#paint8_linear_3764_65926)"/>
<path d="M11.9327 8.65088C11.6689 8.65088 11.4321 8.81244 11.3364 9.05822L9.22355 14.4762C9.09527 14.8059 9.25788 15.1768 9.58721 15.3051C9.9169 15.4333 10.2878 15.2704 10.4161 14.9414L10.7513 14.0817H13.1141L13.4494 14.9414C13.5478 15.1945 13.7894 15.3491 14.0456 15.3491C14.1229 15.3491 14.2016 15.3349 14.2782 15.3051C14.6072 15.1768 14.7705 14.8055 14.6419 14.4762L12.529 9.05822C12.4329 8.81244 12.1965 8.65088 11.9327 8.65088ZM11.2504 12.8018L11.9327 11.0522L12.615 12.8018H11.2504Z" fill="url(#paint9_linear_3764_65926)"/>
<path d="M17.6213 9.93078C17.9745 9.93078 18.2616 9.64442 18.2616 9.29083C18.2616 8.93724 17.9749 8.65088 17.6213 8.65088H15.8294C15.4758 8.65088 15.1895 8.93724 15.1895 9.29083C15.1895 9.64442 15.4758 9.93078 15.8294 9.93078H16.0853V14.0692H15.8294C15.4758 14.0692 15.1895 14.3556 15.1895 14.7092C15.1895 15.0628 15.4758 15.3491 15.8294 15.3491H17.6213C17.9745 15.3491 18.2616 15.0628 18.2616 14.7092C18.2616 14.3556 17.9749 14.0692 17.6213 14.0692H17.3658V9.93078H17.6213Z" fill="url(#paint10_linear_3764_65926)"/>
</g>
<defs>
<radialGradient id="paint0_radial_3764_65926" cx="0" cy="0" r="1" gradientUnits="userSpaceOnUse" gradientTransform="translate(21.8861 5.86668) rotate(140.357) scale(28.4221 191.58)">
<stop stop-color="#DDDDDD"/>
<stop offset="1" stop-color="#989898"/>
</radialGradient>
<linearGradient id="paint1_linear_3764_65926" x1="0" y1="0" x2="32.3127" y2="9.8451" gradientUnits="userSpaceOnUse">
<stop stop-color="#46A6FF"/>
<stop offset="1" stop-color="#C670F0"/>
</linearGradient>
<linearGradient id="paint2_linear_3764_65926" x1="4" y1="2.36035" x2="27.4985" y2="8.72666" gradientUnits="userSpaceOnUse">
<stop stop-color="#46A6FF"/>
<stop offset="1" stop-color="#C670F0"/>
</linearGradient>
<linearGradient id="paint3_linear_3764_65926" x1="21.4785" y1="13.8552" x2="23.9928" y2="15.1487" gradientUnits="userSpaceOnUse">
<stop stop-color="#46A6FF"/>
<stop offset="1" stop-color="#C670F0"/>
</linearGradient>
<linearGradient id="paint4_linear_3764_65926" x1="21.4785" y1="11.3596" x2="23.9928" y2="12.6531" gradientUnits="userSpaceOnUse">
<stop stop-color="#46A6FF"/>
<stop offset="1" stop-color="#C670F0"/>
</linearGradient>
<linearGradient id="paint5_linear_3764_65926" x1="21.4785" y1="8.8645" x2="23.9928" y2="10.158" gradientUnits="userSpaceOnUse">
<stop stop-color="#46A6FF"/>
<stop offset="1" stop-color="#C670F0"/>
</linearGradient>
<linearGradient id="paint6_linear_3764_65926" x1="4" y1="13.8552" x2="6.51429" y2="15.1487" gradientUnits="userSpaceOnUse">
<stop stop-color="#46A6FF"/>
<stop offset="1" stop-color="#C670F0"/>
</linearGradient>
<linearGradient id="paint7_linear_3764_65926" x1="4" y1="11.3601" x2="6.51401" y2="12.6538" gradientUnits="userSpaceOnUse">
<stop stop-color="#46A6FF"/>
<stop offset="1" stop-color="#C670F0"/>
</linearGradient>
<linearGradient id="paint8_linear_3764_65926" x1="4" y1="8.8645" x2="6.51429" y2="10.158" gradientUnits="userSpaceOnUse">
<stop stop-color="#46A6FF"/>
<stop offset="1" stop-color="#C670F0"/>
</linearGradient>
<linearGradient id="paint9_linear_3764_65926" x1="9.17969" y1="8.65088" x2="15.8179" y2="10.076" gradientUnits="userSpaceOnUse">
<stop stop-color="#46A6FF"/>
<stop offset="1" stop-color="#C670F0"/>
</linearGradient>
<linearGradient id="paint10_linear_3764_65926" x1="15.1895" y1="8.65088" x2="19.0091" y2="9.10839" gradientUnits="userSpaceOnUse">
<stop stop-color="#46A6FF"/>
<stop offset="1" stop-color="#C670F0"/>
</linearGradient>
<clipPath id="clip0_3764_65926">
<rect width="20" height="20" fill="white" transform="translate(4 2)"/>
</clipPath>
</defs>
</svg>
