<?xml version="1.0" encoding="UTF-8" standalone="no"?>
<!DOCTYPE svg PUBLIC "-//W3C//DTD SVG 1.1//EN" "http://www.w3.org/Graphics/SVG/1.1/DTD/svg11.dtd">
<svg width="100%" height="100%" viewBox="0 0 127 232" version="1.1" xmlns="http://www.w3.org/2000/svg" xmlns:xlink="http://www.w3.org/1999/xlink" xml:space="preserve" xmlns:serif="http://www.serif.com/" style="fill-rule:evenodd;clip-rule:evenodd;stroke-linejoin:round;stroke-miterlimit:2;">
    <g transform="matrix(1,0,0,1,0.0368516,-140.307)">
        <path id="XMLID_21_" d="M122.78,207.79L67.52,140.89C66.4,139.77 64.29,140.33 64.29,142.01L68.92,206.8L28.81,172.44C27.69,171.32 25.58,172.44 25.86,174.12L41.85,238.07L3.15,215.36C1.75,214.52 -0.08,215.92 0.49,217.74L68.23,370.61C68.79,372.01 71.18,371.73 71.46,370.33L86.33,291.93L124.06,227.98C128.11,221.67 127.41,213.54 122.78,207.79Z" style="fill:rgb(255,102,0);fill-rule:nonzero;"/>
        <path id="XMLID_22_" d="M68.79,206.95L28.4,172.59C27.28,171.47 25.17,172.59 25.45,174.27L41.44,238.22L72.01,256.17L68.79,206.95Z" style="fill:rgb(231,64,48);fill-rule:nonzero;"/>
        <path id="XMLID_23_" d="M69.35,336.81C68.79,338.49 66.4,338.21 66.12,336.53L41.72,238.36L2.73,215.36C1.33,214.52 -0.5,215.92 0.07,217.74L67.81,370.61C68.37,372.01 70.76,371.73 71.04,370.33L85.91,291.79L85.63,292.07L69.35,336.81Z" style="fill:rgb(250,180,24);fill-rule:nonzero;"/>
        <path id="XMLID_24_" d="M69.35,336.81L86.18,292.07L78.61,304.55C77.77,305.95 75.38,305.39 75.38,303.71L72.15,256.31L41.58,238.36L65.98,336.53C66.4,338.22 68.79,338.5 69.35,336.81" style="fill:rgb(222,7,50);fill-rule:nonzero;"/>
        <g id="XMLID_25_" transform="matrix(1,0,0,1,0,2)">
            <path d="M122.22,207.79L66.96,140.89C66.12,139.77 64.01,140.61 64.01,142.01L68.64,206.8L96.55,230.92C102.02,235.55 104.12,243.4 101.46,250.41L86.03,291.08L86.03,291.64L123.76,227.69C127.83,221.67 126.85,213.54 122.22,207.79" style="fill:rgb(255,102,0);fill-rule:nonzero;"/>
        </g>
        <path id="XMLID_26_" d="M80.15,261.22C86.6,265.01 89.69,272.3 88.56,279.59L86.18,291.51L101.61,250.84C104.27,243.83 102.17,236.25 96.7,231.35L68.79,207.23L72.3,256.6L80.15,261.22Z" style="fill:rgb(222,7,51);fill-rule:nonzero;"/>
        <path id="XMLID_27_" d="M85.9,292.36L86.18,291.79L86.18,291.23" style="fill-rule:nonzero;"/>
        <path id="XMLID_28_" d="M85.9,292.36L86.18,291.79L86.18,291.23" style="fill-rule:nonzero;"/>
        <path id="XMLID_29_" d="M80.15,261.22L72.02,256.31L75.11,303.71C75.11,305.39 77.49,306.09 78.34,304.55L85.63,292.07L85.91,291.23L88.29,279.31C89.96,272.3 86.46,265.01 80.15,261.22" style="fill:rgb(204,29,70);fill-rule:nonzero;"/>
    </g>
</svg>
