<svg viewBox="0 0 24 26" >
<path fill-rule="evenodd" clip-rule="evenodd" d="M12.2912 4.85221C12.2023 4.90364 12.1031 4.92777 12.0073 4.92777C11.802 4.92777 11.6035 4.81804 11.4943 4.61969C11.217 4.12699 11.1556 3.53194 11.3229 2.98463C11.4804 2.47519 11.8124 2.07128 12.2637 1.84563C12.2664 1.84427 12.2686 1.84344 12.2704 1.84273C12.2734 1.84161 12.2754 1.84082 12.2775 1.83876C12.2792 1.83706 12.2809 1.83622 12.2826 1.83538C12.2843 1.83455 12.286 1.83371 12.2877 1.83206C12.6743 1.65733 13.0027 1.37689 13.2319 1.02123C13.2332 1.01995 13.2344 1.01916 13.2355 1.01848C13.2373 1.01739 13.2386 1.0166 13.2386 1.01453C13.2419 1.00749 13.249 0.997107 13.2557 0.990406C13.2595 0.986722 13.2633 0.981974 13.267 0.977248C13.2701 0.973379 13.2732 0.969525 13.2763 0.966282L13.2831 0.959581C13.2855 0.957345 13.2878 0.955034 13.29 0.952748C13.2911 0.951609 13.2922 0.950476 13.2934 0.949362C13.2949 0.947797 13.2967 0.94603 13.2985 0.944154C13.3047 0.938 13.312 0.93067 13.3175 0.925406C13.3196 0.921155 13.3231 0.918253 13.3271 0.914903C13.3294 0.912971 13.3319 0.910891 13.3344 0.908318C13.3411 0.90145 13.3483 0.894581 13.3582 0.88788C13.3617 0.884446 13.3651 0.881891 13.3686 0.879336C13.372 0.876781 13.3754 0.874227 13.379 0.870792C13.3824 0.867223 13.3867 0.864602 13.391 0.861989C13.3951 0.859452 13.3993 0.856921 13.4026 0.853537C13.4071 0.851426 13.4129 0.847983 13.4182 0.844803C13.4213 0.842938 13.4242 0.841163 13.4267 0.8398C13.4303 0.838055 13.4349 0.835402 13.4394 0.832786C13.4435 0.830379 13.4476 0.828004 13.4508 0.826398C13.461 0.819362 13.4677 0.816011 13.4781 0.812828C13.4819 0.810774 13.4867 0.808772 13.4914 0.806822C13.4951 0.805273 13.4988 0.803757 13.5018 0.802274C13.5074 0.80049 13.512 0.798658 13.5165 0.796829C13.5205 0.795224 13.5245 0.793621 13.5292 0.792055C13.5343 0.792055 13.5393 0.790295 13.5455 0.788051C13.5479 0.787199 13.5505 0.786276 13.5534 0.785354C13.5583 0.78373 13.5625 0.782893 13.5666 0.782061C13.571 0.781177 13.5754 0.780298 13.5807 0.778486C13.5862 0.776517 13.5907 0.7756 13.5952 0.774662C13.5992 0.773844 13.6032 0.77301 13.6081 0.77145C13.6132 0.77145 13.6174 0.770584 13.6216 0.769712C13.6259 0.768825 13.6303 0.767932 13.6356 0.767932C13.6407 0.767932 13.6457 0.767101 13.6508 0.766266C13.6559 0.765425 13.6611 0.764581 13.6663 0.764581C13.673 0.76123 13.6832 0.76123 13.6902 0.76123H13.7209H13.7448C13.7586 0.764581 13.7688 0.764581 13.779 0.764581C13.7824 0.764581 13.7867 0.765419 13.791 0.766256C13.7953 0.767094 13.7996 0.767932 13.803 0.767932C13.8082 0.769733 13.8135 0.770612 13.8188 0.77149C13.8239 0.772328 13.829 0.773165 13.834 0.7748C13.8374 0.776686 13.8417 0.777607 13.8461 0.778528C13.8502 0.779407 13.8544 0.780286 13.8577 0.782004C13.868 0.782004 13.8784 0.785354 13.8887 0.788705C13.8941 0.790498 13.8986 0.79229 13.9031 0.794109C13.9071 0.795689 13.911 0.797288 13.9157 0.798924C13.9217 0.800839 13.9266 0.802755 13.9315 0.804702C13.9352 0.80616 13.9389 0.807636 13.9432 0.809143C13.9482 0.810934 13.9532 0.813397 13.9582 0.81584C13.9635 0.818426 13.9687 0.82099 13.9738 0.822712C13.9844 0.826398 13.9913 0.829749 13.998 0.833099C14.003 0.836406 14.0081 0.838978 14.0132 0.841541C14.0185 0.844171 14.0237 0.846792 14.0288 0.850187C14.0321 0.850187 14.039 0.853537 14.0424 0.857055C14.0438 0.85839 14.0447 0.859724 14.0455 0.860847C14.0466 0.862543 14.0474 0.863756 14.0494 0.863756C14.0561 0.867107 14.0665 0.87431 14.0732 0.881012C14.0802 0.88453 14.0904 0.891231 14.0971 0.897932L14.1038 0.904968C14.8018 1.50002 15.1371 2.39963 15.0107 3.31299C14.884 4.22265 14.3094 4.9926 13.4748 5.37573C13.3959 5.41343 13.314 5.43035 13.2319 5.43035C13.0094 5.43035 12.801 5.3037 12.7017 5.09178C12.5681 4.80112 12.698 4.45568 12.989 4.32216C13.461 4.10656 13.7857 3.66881 13.8577 3.15568C13.9021 2.8476 13.8509 2.54002 13.7174 2.26963C13.4475 2.52947 13.1327 2.74172 12.7873 2.89903C12.6263 2.98128 12.5031 3.13491 12.4415 3.33711C12.3664 3.57985 12.3937 3.85007 12.5137 4.06199C12.6707 4.33925 12.5717 4.69474 12.2912 4.85221ZM22.0573 21.8527C22.6663 21.8527 23.162 22.3521 23.162 22.9677H23.1586V24.0211C23.1586 24.6368 22.6626 25.1364 22.0536 25.1364H1.76304C1.15391 25.1364 0.658203 24.6368 0.658203 24.0211V22.9744C0.658203 22.3588 1.15391 21.8594 1.76304 21.8594H1.79018V15.8289C1.79018 15.8169 1.78934 15.8049 1.7885 15.793C1.78766 15.7811 1.78683 15.7692 1.78683 15.7572C1.78683 15.7331 1.78683 15.709 1.79018 15.6854V14.1188C1.79018 12.9247 2.76166 11.9569 3.95193 11.9569H10.2804V6.09066C10.2804 5.76566 10.4477 5.46814 10.718 5.31083C10.9915 5.15001 11.3373 5.15336 11.6176 5.31435L13.0953 6.16588C13.3722 6.32319 13.5433 6.62088 13.5433 6.93902V11.9536H19.8612C21.0548 11.9536 22.0231 12.9247 22.0231 14.1155V21.8527H22.0573ZM1.82469 23.0155V23.9664H22.0023V23.0155H1.82469ZM11.4398 7.55132L12.3803 8.09528V7.09264L11.4398 6.55237V7.55132ZM12.3837 8.88533L11.4432 8.34154V9.70939L12.3837 10.2533V8.88533ZM12.3837 11.0469L11.4432 10.503V11.9569H12.3837V11.0469ZM19.8612 13.1199H3.95193C3.40144 13.1199 2.95331 13.5678 2.96336 14.1051V15.2408C3.38754 15.3604 3.76715 15.6031 4.05446 15.9521L4.70814 16.7458C4.89946 16.9815 5.18023 17.1154 5.47776 17.1154H5.48111C5.78215 17.1154 6.06594 16.9849 6.25407 16.756L7.11264 15.7129C7.5405 15.1962 8.15951 14.9089 8.81303 14.9226C9.4694 14.9362 10.099 15.2543 10.499 15.7777V15.7812V15.7846L11.1695 16.6773C11.3542 16.9167 11.638 17.0571 11.9461 17.0638C12.2537 17.0705 12.541 16.9405 12.736 16.7048L13.547 15.7162C13.9742 15.1996 14.597 14.9122 15.2571 14.926C15.9173 14.9396 16.5259 15.251 16.9332 15.7812L17.617 16.6773C17.6188 16.6805 17.6213 16.6837 17.6237 16.6869C17.6264 16.6905 17.6292 16.694 17.6309 16.6976C17.8157 16.9272 18.0826 17.0571 18.3835 17.0638C18.6912 17.0705 18.9785 16.9405 19.1737 16.7048L19.7789 15.9693C20.0663 15.6239 20.4429 15.381 20.86 15.261V14.1188C20.86 13.5678 20.4119 13.1199 19.8612 13.1199ZM3.14814 16.7014C3.09001 16.6327 3.02518 16.5748 2.95331 16.5233V21.8594H20.8464V16.5406C20.7814 16.5883 20.7164 16.6465 20.6616 16.715L20.0562 17.4503C19.6458 17.9465 19.0403 18.2301 18.3903 18.2301H18.3458C17.6857 18.2165 17.0803 17.9121 16.68 17.3888C16.673 17.3817 16.6676 17.373 16.6626 17.3649C16.6604 17.3612 16.6582 17.3577 16.6559 17.3544L15.9959 16.4892C15.8044 16.2429 15.5241 16.0993 15.2194 16.0921C14.9219 16.0856 14.6245 16.226 14.4293 16.4617L13.6187 17.4503C13.2081 17.9465 12.6028 18.2301 11.9528 18.2301H11.9084C11.2448 18.2165 10.6325 17.9086 10.2321 17.3853V17.3786L9.56187 16.4858C9.37709 16.2429 9.08292 16.096 8.77852 16.0888C8.48083 16.0822 8.19352 16.2188 7.99517 16.4583L7.1366 17.5052C6.72616 18.0009 6.12072 18.2849 5.47089 18.2849H5.46754C4.82089 18.2849 4.21545 17.9976 3.80149 17.4947L3.14814 16.7014Z" />
</svg>
