<svg viewBox="0 0 22 24" >
<path d="M21.0511 19.6911H5.34125C5.14809 19.6911 5.06532 19.4374 5.21659 19.3207L7.40347 17.64H19.8988C20.7872 17.64 21.524 16.9097 21.5413 16.0227L21.6813 8.81624C21.6973 7.9947 21.0957 7.28137 20.282 7.15973C19.8905 7.10117 19.5239 7.37034 19.4653 7.76236C19.4066 8.15438 19.6771 8.51918 20.0695 8.57784C20.1715 8.59307 20.2468 8.68168 20.2448 8.78434L20.1048 15.9948C20.1027 16.1057 20.0102 16.2042 19.8989 16.2042H7.72986L5.46294 6.40307L6.61352 6.5708C7.00581 6.62926 7.37158 6.35702 7.43029 5.965C7.48895 5.57297 7.21846 5.20659 6.82602 5.14792L5.1026 4.88984L4.44378 2.32883C4.36229 2.01137 4.07595 1.79492 3.74793 1.79492H0.950834C0.554092 1.79492 0.232422 2.11644 0.232422 2.51282C0.232422 2.9092 0.554041 3.23072 0.950834 3.23072H3.19053L6.35477 16.6205L4.33906 18.1734C3.12299 19.1104 3.80695 21.1269 5.3412 21.1269H7.22712C7.14364 21.332 7.0978 21.5936 7.0978 21.8503C7.0978 23.0378 8.07081 23.9999 9.26683 23.9999C10.4629 23.9999 11.4359 23.0398 11.4359 21.8523C11.4359 21.5956 11.39 21.332 11.3065 21.1269H15.2301C15.1466 21.332 15.1008 21.5936 15.1008 21.8503C15.1008 23.0378 16.0738 23.9999 17.2698 23.9999C18.4658 23.9999 19.4389 23.0398 19.4389 21.8523C19.4389 21.5956 19.3931 21.332 19.3096 21.1269H21.0512C21.4479 21.1269 21.7696 20.8054 21.7696 20.409C21.7696 20.0126 21.4478 19.6911 21.0511 19.6911ZM9.26683 22.5604C8.86306 22.5604 8.53462 22.2383 8.53462 21.8423C8.53462 21.4463 8.86311 21.1242 9.26683 21.1242C9.6706 21.1242 9.99909 21.4463 9.99909 21.8423C9.99909 22.2383 9.6706 22.5604 9.26683 22.5604ZM17.2698 22.5604C16.866 22.5604 16.5376 22.2383 16.5376 21.8423C16.5376 21.4463 16.8661 21.1242 17.2698 21.1242C17.6736 21.1242 18.002 21.4463 18.002 21.8423C18.002 22.2383 17.6735 22.5604 17.2698 22.5604Z"  />
<path d="M13.37 10.4055C10.493 10.4055 8.15234 8.0716 8.15234 5.20277C8.15234 2.33394 10.493 0 13.37 0C16.2471 0 18.5877 2.33394 18.5877 5.20277C18.5877 8.0716 16.2471 10.4055 13.37 10.4055ZM13.37 1.43549C11.2853 1.43549 9.58917 3.12548 9.58917 5.20277C9.58917 7.28007 11.2853 8.97005 13.37 8.97005C15.4548 8.97005 17.1509 7.28007 17.1509 5.20277C17.1509 3.12548 15.4548 1.43549 13.37 1.43549Z" />
<path d="M12.0982 7.03049L10.9442 5.6611C10.6887 5.35789 10.7276 4.9051 11.0311 4.64978C11.3346 4.39447 11.7877 4.43329 12.0433 4.7366L12.6774 5.48901L14.65 3.39305C14.9218 3.1043 15.3765 3.0903 15.6655 3.36182C15.9546 3.63334 15.9685 4.08762 15.6967 4.37637L13.1711 7.05993C12.9455 7.2974 12.3682 7.34442 12.0982 7.03049Z" />
</svg>
