<svg viewBox="0 0 18 18" >
<path d="M4.375 10H0.625C0.279822 10 0 10.2798 0 10.625V16.875C0 17.2202 0.279822 17.5 0.625 17.5H4.375C4.72018 17.5 5 17.2202 5 16.875V10.625C5 10.2798 4.72018 10 4.375 10Z"/>
<path d="M16.875 5H13.125C12.7798 5 12.5 5.27982 12.5 5.625V16.875C12.5 17.2202 12.7798 17.5 13.125 17.5H16.875C17.2202 17.5 17.5 17.2202 17.5 16.875V5.625C17.5 5.27982 17.2202 5 16.875 5Z" />
<path d="M10.625 0H6.875C6.52982 0 6.25 0.279822 6.25 0.625V16.875C6.25 17.2202 6.52982 17.5 6.875 17.5H10.625C10.9702 17.5 11.25 17.2202 11.25 16.875V0.625C11.25 0.279822 10.9702 0 10.625 0Z" />
</svg>
