<svg viewBox="0 0 25 31" >
<path fill-rule="evenodd" clip-rule="evenodd" d="M7.66667 0.5C3.43248 0.5 0 3.93248 0 8.16667V21.5H2V8.16667C2 5.03705 4.53705 2.5 7.66667 2.5H17.6667V0.5H7.66667ZM22.3333 15.1667V21.8333C22.3333 23.8345 22.3304 25.168 22.2168 26.1756C22.1077 27.1428 21.9183 27.5592 21.7134 27.8263C21.5538 28.0343 21.3676 28.2205 21.1596 28.3801C20.8925 28.585 20.4762 28.7744 19.5089 28.8834C18.5013 28.997 17.1678 29 15.1667 29C13.1655 29 11.832 28.997 10.8244 28.8834C9.85717 28.7744 9.44079 28.585 9.17372 28.3801C8.96572 28.2205 8.77954 28.0343 8.61994 27.8263C8.415 27.5592 8.22561 27.1428 8.11656 26.1756C8.00297 25.168 8 23.8345 8 21.8333V15.1667C8 13.1655 8.00297 11.832 8.11656 10.8244C8.22561 9.85717 8.415 9.44079 8.61994 9.17372C8.77954 8.96572 8.96572 8.77954 9.17372 8.61994C9.44079 8.41501 9.85717 8.22561 10.8244 8.11656C11.832 8.00297 13.1655 8 15.1667 8C17.1678 8 18.5013 8.00297 19.5089 8.11656C20.4762 8.22561 20.8925 8.41501 21.1596 8.61994C21.3676 8.77954 21.5538 8.96572 21.7134 9.17372C21.9183 9.44079 22.1077 9.85717 22.2168 10.8244C22.3304 11.832 22.3333 13.1655 22.3333 15.1667ZM6 15.1667C6 11.2574 6 9.30273 7.03323 7.95619C7.29924 7.60953 7.60953 7.29924 7.95619 7.03323C9.30273 6 11.2574 6 15.1667 6C19.076 6 21.0306 6 22.3771 7.03323C22.7238 7.29924 23.0341 7.60953 23.3001 7.95619C24.3333 9.30273 24.3333 11.2574 24.3333 15.1667V21.8333C24.3333 25.7426 24.3333 27.6973 23.3001 29.0438C23.0341 29.3905 22.7238 29.7008 22.3771 29.9668C21.0306 31 19.076 31 15.1667 31C11.2574 31 9.30273 31 7.95619 29.9668C7.60953 29.7008 7.29924 29.3905 7.03323 29.0438C6 27.6973 6 25.7426 6 21.8333V15.1667Z" />
</svg>
