<svg viewBox="0 0 18 16" >
<path d="M16.2352 13.0178H1.76597C0.830812 13.0178 0.0703125 12.257 0.0703125 11.3221V1.72251C0.0703125 0.787637 0.830812 0.0268555 1.76597 0.0268555H16.2349C17.1698 0.0268555 17.9305 0.787637 17.9305 1.72251V11.3219C17.9308 12.257 17.17 13.0178 16.2352 13.0178ZM1.76597 1.33129C1.54969 1.33129 1.37447 1.50679 1.37447 1.72251V11.3219C1.37447 11.5376 1.54969 11.7134 1.76597 11.7134H16.2349C16.4506 11.7134 16.6264 11.5376 16.6264 11.3219V1.72251C16.6264 1.50679 16.4506 1.33129 16.2349 1.33129H1.76597Z" />
<path d="M12.661 15.9734H5.33748C4.97748 15.9734 4.68555 15.6814 4.68555 15.3212C4.68555 14.9609 4.97748 14.6689 5.33748 14.6689H12.6607C13.021 14.6689 13.3129 14.9609 13.3129 15.3212C13.3129 15.6814 13.0212 15.9734 12.661 15.9734Z" />
<path d="M8.99988 15.9732C8.63959 15.9732 8.34766 15.6813 8.34766 15.321V12.3656C8.34766 12.0053 8.63959 11.7134 8.99988 11.7134C9.35988 11.7134 9.65181 12.0053 9.65181 12.3656V15.321C9.65181 15.6813 9.35988 15.9732 8.99988 15.9732Z" />
</svg>
