<svg viewBox="0 0 35 33" fill="none" xmlns="http://www.w3.org/2000/svg">
<path fill-rule="evenodd" clip-rule="evenodd" d="M16.1894 2.99813C16.783 2.00844 18.2175 2.00844 18.8112 2.99813L20.3125 5.50015C20.3152 5.50482 20.3178 5.50949 20.3205 5.51413C20.3229 5.51829 20.3254 5.52243 20.3279 5.52657L26.6559 16.0737L26.6559 16.0738C26.9805 16.6147 26.9257 17.234 26.6249 17.6958C26.6115 17.7164 26.5976 17.7367 26.5832 17.7567C26.3129 18.1314 25.874 18.3882 25.3452 18.3882H9.65536C8.46704 18.3882 7.73328 17.0919 8.3444 16.0733L14.6724 5.52615L16.1894 2.99813ZM13.2125 3.97363L14.4308 1.94308C15.821 -0.374305 19.1797 -0.374258 20.5698 1.94323L21.7882 3.97363H33.9746C34.5409 3.97363 35 4.43272 35 4.99902V23.5322V23.5326V27.6509C35 28.2172 34.5409 28.6763 33.9746 28.6763H20.585V30.7441H25.7373C26.3036 30.7441 26.7627 31.2032 26.7627 31.7695C26.7627 32.3358 26.3036 32.7949 25.7373 32.7949H9.2627C8.69639 32.7949 8.2373 32.3358 8.2373 31.7695C8.2373 31.2032 8.69639 30.7441 9.2627 30.7441H14.415V28.6763H1.02539C0.459083 28.6763 0 28.2172 0 27.6509V23.5326V23.5322V4.99902C0 4.43272 0.459083 3.97363 1.02539 3.97363H13.2125ZM28.2447 18.9592C27.6118 19.8375 26.5837 20.4394 25.3449 20.4394H9.65508C6.87309 20.4394 5.15413 17.4044 6.58557 15.0186L6.58558 15.0186L11.9819 6.02441H2.05078V22.5068H32.9492V6.02441H23.0187L28.4147 15.0182C29.1752 16.2857 29.0465 17.7363 28.3417 18.8178C28.3105 18.8657 28.2781 18.9128 28.2447 18.9592ZM16.4658 30.7441V28.6763H18.5342V30.7441H16.4658ZM32.9492 24.558V26.6255H2.05078V24.558H32.9492ZM17.5 6.03223C18.0663 6.03223 18.5254 6.49131 18.5254 7.05762V11.1763C18.5254 11.7426 18.0663 12.2017 17.5 12.2017C16.9337 12.2017 16.4746 11.7426 16.4746 11.1763V7.05762C16.4746 6.49131 16.9337 6.03223 17.5 6.03223ZM18.5253 15.2949C18.5501 15.8487 18.0362 16.3203 17.4999 16.3203C16.9251 16.3203 16.4994 15.8505 16.4745 15.2949C16.4497 14.7411 16.9635 14.2695 17.4999 14.2695C18.0747 14.2695 18.5004 14.7394 18.5253 15.2949Z" />
</svg>
