<svg width="20" height="18" viewBox="0 0 20 18" fill="none" xmlns="http://www.w3.org/2000/svg">
<path d="M18.5791 14.4012C18.5752 14.3957 18.5716 14.3901 18.5681 14.3844L10.9689 2.34047C10.5185 1.6268 9.47852 1.62797 9.0288 2.34051L1.39701 14.4362C0.915958 15.1987 1.46518 16.1953 2.36705 16.1953H17.6319C18.5538 16.1953 19.0967 15.1578 18.5791 14.4012Z" fill="#C6271A"/>
<path d="M2.27744 15.6015C2.07568 15.2356 2.08881 14.7888 2.31174 14.4355L9.94356 2.33979C10.0692 2.14068 10.2485 1.98979 10.4563 1.89971C9.94743 1.67912 9.33829 1.8494 9.02879 2.33979L1.39701 14.4355C0.915958 15.198 1.46518 16.1945 2.36705 16.1945H3.28181C2.86404 16.1945 2.4792 15.9673 2.27744 15.6015Z" fill="#AF221B"/>
<path d="M17.6325 17.4132H2.36763C0.508801 17.4132 -0.624556 15.359 0.367551 13.7864L7.99945 1.69069C8.92789 0.219483 11.0723 0.221124 11.9995 1.69061L19.5928 13.725C20.6512 15.2907 19.5227 17.4132 17.6325 17.4132ZM9.11429 2.39417L1.48251 14.4898C1.04357 15.1856 1.5447 16.095 2.36766 16.095H17.6325C18.4731 16.095 18.9695 15.1489 18.4972 14.4585C18.4926 14.4518 18.4882 14.445 18.4838 14.4381L10.8846 2.39413C10.4736 1.74292 9.52468 1.74389 9.11429 2.39417Z" fill="white"/>
<path d="M1.17048 13.7857L8.80234 1.69002C9.16554 1.11451 9.74527 0.73252 10.4009 0.621035C9.46277 0.461661 8.51831 0.867715 7.99941 1.69002L0.367509 13.7857C-0.624286 15.3579 0.508134 17.4126 2.36758 17.4126H3.17051C1.31173 17.4126 0.178369 15.3584 1.17048 13.7857Z" fill="white"/>
<path d="M10.0009 6.23633C9.63699 6.23633 9.3418 6.53144 9.3418 6.89547V10.7231C9.3418 11.0871 9.63699 11.3822 10.0009 11.3822C10.365 11.3822 10.6601 11.0871 10.6601 10.7231V6.89547C10.6601 6.53144 10.365 6.23633 10.0009 6.23633Z" fill="#F2F2F2"/>
<path d="M10.0009 13.9257C10.365 13.9257 10.6601 13.6306 10.6601 13.2666C10.6601 12.9025 10.365 12.6074 10.0009 12.6074C9.6369 12.6074 9.3418 12.9025 9.3418 13.2666C9.3418 13.6306 9.6369 13.9257 10.0009 13.9257Z" fill="#F2F2F2"/>
</svg>
