<svg viewBox="0 0 24 25" >
<path d="M9.65811 20.2806L9.81622 20.755H9.81622L9.65811 20.2806ZM14.6581 18.614L14.8162 19.0883H14.8162L14.6581 18.614ZM19.7071 7.79289L20.0607 8.14645L19.7071 7.79289ZM15.2929 12.2071L14.9393 11.8536L15.2929 12.2071ZM5 5H19V4H5V5ZM4.5 7.08579V5.5H3.5V7.08579H4.5ZM9.06065 11.8535L4.64645 7.43934L3.93934 8.14645L8.35355 12.5607L9.06065 11.8535ZM8.49999 12.9142V19.8063H9.49999V12.9142H8.49999ZM8.49999 19.8063C8.49999 20.4888 9.16869 20.9708 9.81622 20.755L9.49999 19.8063V19.8063H8.49999ZM9.81622 20.755L14.8162 19.0883L14.5 18.1396L9.49999 19.8063L9.81622 20.755ZM14.8162 19.0883C15.2246 18.9522 15.5 18.5701 15.5 18.1396H14.5L14.8162 19.0883ZM15.5 18.1396V12.9142H14.5V18.1396H15.5ZM19.3536 7.43934L14.9393 11.8536L15.6464 12.5607L20.0607 8.14645L19.3536 7.43934ZM19.5 5.5V7.08579H20.5V5.5H19.5ZM20.0607 8.14645C20.342 7.86514 20.5 7.48361 20.5 7.08579H19.5C19.5 7.21839 19.4473 7.34557 19.3536 7.43934L20.0607 8.14645ZM15.5 12.9142C15.5 12.7816 15.5527 12.6544 15.6464 12.5607L14.9393 11.8536C14.658 12.1349 14.5 12.5164 14.5 12.9142H15.5ZM8.35355 12.5607C8.44731 12.6544 8.49999 12.7816 8.49999 12.9142H9.49999C9.49999 12.5164 9.34196 12.1349 9.06065 11.8535L8.35355 12.5607ZM3.5 7.08579C3.5 7.48361 3.65804 7.86514 3.93934 8.14645L4.64645 7.43934C4.55268 7.34557 4.5 7.21839 4.5 7.08579H3.5ZM19 5C19.2761 5 19.5 5.22386 19.5 5.5H20.5C20.5 4.67157 19.8284 4 19 4V5ZM5 4C4.17157 4 3.5 4.67157 3.5 5.5H4.5C4.5 5.22386 4.72386 5 5 5V4Z" />
</svg>
