<?xml version="1.0" encoding="UTF-8" standalone="no"?>
<!DOCTYPE svg PUBLIC "-//W3C//DTD SVG 1.1//EN" "http://www.w3.org/Graphics/SVG/1.1/DTD/svg11.dtd">
<svg width="100%" height="100%" viewBox="0 0 132 152" version="1.1" xmlns="http://www.w3.org/2000/svg" xmlns:xlink="http://www.w3.org/1999/xlink" xml:space="preserve" xmlns:serif="http://www.serif.com/" style="fill-rule:evenodd;clip-rule:evenodd;stroke-linejoin:round;stroke-miterlimit:2;">
    <g transform="matrix(1,0,0,1,-3.86919e-06,4.05053e-06)">
        <g id="g6628" transform="matrix(3.54856,0,0,3.54856,-174.949,-339.18)">
            <path id="path3806" d="M76.058,100.691L76.058,132.798C76.058,136.394 78.536,138.393 81.166,138.393C83.598,138.393 86.274,136.69 86.274,132.798L86.274,100.934C86.274,97.643 83.842,95.583 81.166,95.583C78.49,95.583 76.058,97.855 76.058,100.691Z" style="fill:rgb(248,171,0);fill-rule:nonzero;"/>
            <path id="path3808" d="M62.68,116.988L62.68,132.798C62.68,136.394 65.158,138.393 67.788,138.393C70.22,138.393 72.896,136.69 72.896,132.798L72.896,117.231C72.896,113.94 70.463,111.88 67.788,111.88C65.112,111.88 62.68,114.153 62.68,116.988Z" style="fill:rgb(227,115,0);fill-rule:nonzero;"/>
            <path id="path3810" d="M59.518,133.285C59.518,136.105 57.23,138.393 54.41,138.393C51.59,138.393 49.302,136.105 49.302,133.285C49.302,130.465 51.59,128.177 54.41,128.177C57.23,128.177 59.518,130.465 59.518,133.285" style="fill:rgb(227,115,0);fill-rule:nonzero;"/>
        </g>
    </g>
</svg>
