<?xml version="1.0" encoding="UTF-8" standalone="no"?>
<!DOCTYPE svg PUBLIC "-//W3C//DTD SVG 1.1//EN" "http://www.w3.org/Graphics/SVG/1.1/DTD/svg11.dtd">
<svg width="100%" height="100%" viewBox="0 0 1035 946" version="1.1" xmlns="http://www.w3.org/2000/svg" xmlns:xlink="http://www.w3.org/1999/xlink" xml:space="preserve" xmlns:serif="http://www.serif.com/" style="fill-rule:evenodd;clip-rule:evenodd;stroke-linejoin:round;stroke-miterlimit:2;">
    <g transform="matrix(4.16667,0,0,4.16667,-5.84256,-0.137201)">
        <g>
            <path d="M85.9,28.6C88.3,22.3 91.6,16.5 96.5,11.8C116.1,-7.3 148.5,-2.5 161.8,21.5C171.8,39.7 182.4,57.5 192.7,75.5C209.9,105.4 227.3,135.3 244.3,165.3C258.6,190.4 243.1,222.1 214.7,226.4C197.3,229 181,221 172,205.4C156.9,179.1 141.7,152.8 126.6,126.6C126.3,126 125.9,125.5 125.5,125C123.9,123.7 123.2,121.8 122.2,120.1C115.5,108.3 108.6,96.6 101.9,84.9C97.6,77.3 93.1,69.8 88.8,62.2C84.9,55.4 83.1,48 83.3,40.2C83.6,36.2 84.1,32.2 85.9,28.6" style="fill:rgb(134,134,134);fill-rule:nonzero;"/>
            <path d="M85.9,28.6C85,32.2 84.2,35.8 84,39.6C83.7,48 85.8,55.8 90,63.1C101,82 112,101 122.9,120C123.9,121.7 124.7,123.4 125.7,125C119.7,135.4 113.7,145.7 107.6,156.1C99.2,170.6 90.8,185.2 82.3,199.7C81.9,199.7 81.8,199.5 81.7,199.2C81.6,198.4 81.9,197.7 82.1,196.9C86.2,181.9 82.8,168.6 72.5,157.2C66.2,150.3 58.2,146.4 49,145.1C37,143.4 26.4,146.5 16.9,154C15.2,155.3 14.1,157.2 12.1,158.2C11.7,158.2 11.5,158 11.4,157.7C16.2,149.4 20.9,141.1 25.7,132.8C45.5,98.4 65.3,64 85.2,29.7C85.4,29.3 85.7,29 85.9,28.6" style="fill:rgb(199,199,199);fill-rule:nonzero;"/>
            <path d="M11.8,158C13.7,156.3 15.5,154.5 17.5,152.9C41.8,133.7 78.3,147.6 83.6,178C84.9,185.3 84.2,192.3 82,199.3C81.9,199.9 81.8,200.4 81.6,201C80.7,202.6 79.9,204.3 78.9,205.9C70,220.6 56.9,227.9 39.7,226.8C20,225.4 4.5,210.6 1.8,191C0.5,181.5 2.4,172.6 7.3,164.4C8.3,162.6 9.5,161 10.6,159.2C11.1,158.8 10.9,158 11.8,158" style="fill:rgb(147,147,147);fill-rule:nonzero;"/>
            <path d="M11.8,158C11.4,158.4 11.4,159.1 10.7,159.2C10.6,158.5 11,158.1 11.4,157.6L11.8,158" style="fill:rgb(199,199,199);fill-rule:nonzero;"/>
            <path d="M81.6,201C81.2,200.3 81.6,199.8 82,199.3C82.1,199.4 82.3,199.6 82.4,199.7L81.6,201" style="fill:rgb(195,195,195);fill-rule:nonzero;"/>
        </g>
    </g>
</svg>
