<svg width="25" height="25" viewBox="0 0 25 25" fill="none" xmlns="http://www.w3.org/2000/svg">
<path d="M6.80211 5.76739L4.73073 3.69601C4.44464 3.40992 3.98112 3.40992 3.69503 3.69601C3.40895 3.98209 3.40895 4.44562 3.69503 4.7317L5.76642 6.80309C6.0525 7.08917 6.51603 7.08917 6.80211 6.80309C7.0882 6.517 7.0882 6.05348 6.80211 5.76739Z" fill="url(#paint0_radial_4362_71915)"/>
<path d="M3.71094 11.7676H0.732422C0.327588 11.7676 0 12.0952 0 12.5C0 12.9048 0.327588 13.2324 0.732422 13.2324H3.71094C4.11577 13.2324 4.44336 12.9048 4.44336 12.5C4.44336 12.0952 4.11577 11.7676 3.71094 11.7676Z" fill="url(#paint1_radial_4362_71915)"/>
<path d="M24.2676 11.7676H21.2891C20.8842 11.7676 20.5566 12.0952 20.5566 12.5C20.5566 12.9048 20.8842 13.2324 21.2891 13.2324H24.2676C24.6724 13.2324 25 12.9048 25 12.5C25 12.0952 24.6724 11.7676 24.2676 11.7676Z" fill="url(#paint2_radial_4362_71915)"/>
<path d="M21.3041 3.69601C21.018 3.40992 20.5545 3.40992 20.2684 3.69601L18.197 5.76739C17.9109 6.05348 17.9109 6.517 18.197 6.80309C18.4831 7.08917 18.9466 7.08917 19.2327 6.80309L21.3041 4.7317C21.5902 4.44562 21.5902 3.98214 21.3041 3.69601Z" fill="url(#paint3_radial_4362_71915)"/>
<path d="M12.5 0C12.0952 0 11.7676 0.327588 11.7676 0.732422V3.71094C11.7676 4.11577 12.0952 4.44336 12.5 4.44336C12.9048 4.44336 13.2324 4.11577 13.2324 3.71094V0.732422C13.2324 0.327588 12.9048 0 12.5 0Z" fill="url(#paint4_radial_4362_71915)"/>
<path d="M16.602 7.32887C15.0053 6.0691 12.9399 5.61505 10.9184 6.09845C8.57462 6.64044 6.68502 8.50075 6.11368 10.8299C5.5424 13.1736 6.20157 15.5466 7.8861 17.2019C8.48673 17.8026 8.83829 18.7449 8.83829 19.7117V19.8729C8.83829 20.283 9.16051 20.6053 9.57072 20.6053H15.4301C15.8403 20.6053 16.1625 20.283 16.1625 19.8729V19.7117C16.1625 18.7595 16.5287 17.7879 17.1733 17.158C18.4038 15.9129 19.0922 14.2576 19.0922 12.4998C19.0922 10.4783 18.184 8.58864 16.602 7.32887ZM12.5004 10.3026C11.3954 10.3026 10.591 11.0355 10.3804 11.884C10.2845 12.2699 9.89625 12.5162 9.49274 12.419C9.10079 12.3217 8.86114 11.924 8.95846 11.5321C9.32135 10.0672 10.6972 8.83771 12.5004 8.83771C12.9052 8.83771 13.2328 9.1653 13.2328 9.57013C13.2328 9.97496 12.9052 10.3026 12.5004 10.3026Z" fill="url(#paint5_radial_4362_71915)"/>
<path d="M9.57031 22.0703V22.8027C9.57031 24.0144 10.556 25 11.7676 25H13.2324C14.444 25 15.4297 24.0144 15.4297 22.8027V22.0703H9.57031Z" fill="url(#paint6_radial_4362_71915)"/>
<defs>
<radialGradient id="paint0_radial_4362_71915" cx="0" cy="0" r="1" gradientUnits="userSpaceOnUse" gradientTransform="translate(5.88625 4.60463) rotate(122.435) scale(2.66157)">
<stop stop-color="#61F5DB"/>
<stop offset="1" stop-color="#16CCAC"/>
</radialGradient>
<radialGradient id="paint1_radial_4362_71915" cx="0" cy="0" r="1" gradientUnits="userSpaceOnUse" gradientTransform="translate(3.02294 12.2328) rotate(152.581) scale(2.02074 1.82471)">
<stop stop-color="#61F5DB"/>
<stop offset="1" stop-color="#16CCAC"/>
</radialGradient>
<radialGradient id="paint2_radial_4362_71915" cx="0" cy="0" r="1" gradientUnits="userSpaceOnUse" gradientTransform="translate(23.5796 12.2328) rotate(152.581) scale(2.02074 1.82471)">
<stop stop-color="#61F5DB"/>
<stop offset="1" stop-color="#16CCAC"/>
</radialGradient>
<radialGradient id="paint3_radial_4362_71915" cx="0" cy="0" r="1" gradientUnits="userSpaceOnUse" gradientTransform="translate(20.3882 4.60463) rotate(122.435) scale(2.66157)">
<stop stop-color="#61F5DB"/>
<stop offset="1" stop-color="#16CCAC"/>
</radialGradient>
<radialGradient id="paint4_radial_4362_71915" cx="0" cy="0" r="1" gradientUnits="userSpaceOnUse" gradientTransform="translate(12.7642 1.41131) rotate(101.832) scale(2.8839 1.27857)">
<stop stop-color="#61F5DB"/>
<stop offset="1" stop-color="#16CCAC"/>
</radialGradient>
<radialGradient id="paint5_radial_4362_71915" cx="0" cy="0" r="1" gradientUnits="userSpaceOnUse" gradientTransform="translate(14.8789 10.577) rotate(119.68) scale(10.7454 10.2117)">
<stop stop-color="#61F5DB"/>
<stop offset="1" stop-color="#16CCAC"/>
</radialGradient>
<radialGradient id="paint6_radial_4362_71915" cx="0" cy="0" r="1" gradientUnits="userSpaceOnUse" gradientTransform="translate(13.5566 23.0008) rotate(141.804) scale(3.00974 3.23106)">
<stop stop-color="#61F5DB"/>
<stop offset="1" stop-color="#16CCAC"/>
</radialGradient>
</defs>
</svg>
