<svg viewBox="0 0 20 20" >
<path fill-rule="evenodd" clip-rule="evenodd" d="M5.69922 7.4L6.29922 6.6L9.49922 9V0H10.4992V9L13.6992 6.6L14.2992 7.4L9.99922 10.625L5.69922 7.4ZM0.5 9.04781C0.5 9.03784 0.5 9.02782 0.5 9.01776V9V6.96342V6.96341C0.499987 6.05169 0.499976 5.31681 0.577683 4.73883C0.65836 4.13876 0.830956 3.63351 1.23223 3.23223C1.63351 2.83096 2.13876 2.65836 2.73883 2.57768C3.31681 2.49998 4.05169 2.49999 4.96342 2.5L6 2.5V3.5H5C4.04306 3.5 3.37565 3.50106 2.87208 3.56877C2.3829 3.63453 2.12385 3.75483 1.93934 3.93934C1.75483 4.12385 1.63453 4.3829 1.56877 4.87208C1.50106 5.37565 1.5 6.04306 1.5 7V9.0286C1.50002 9.48613 1.50063 9.80756 1.51787 10.0603C1.53516 10.3137 1.5675 10.4613 1.61418 10.574C1.76642 10.9416 2.05843 11.2336 2.42598 11.3858C2.53867 11.4325 2.68627 11.4648 2.93972 11.4821C3.19767 11.4997 3.52722 11.5 4 11.5L4.69722 11.5C4.96911 11.5 5.2075 11.5 5.40583 11.519C5.61919 11.5395 5.82789 11.5848 6.02869 11.7006C6.11656 11.7513 6.19906 11.8108 6.27492 11.8781C6.44829 12.032 6.55731 12.2156 6.6442 12.4116C6.72498 12.5937 6.80035 12.8199 6.88632 13.0778L7.01849 13.4743C7.13214 13.8153 7.20481 14.0309 7.27774 14.1877C7.34525 14.3328 7.39212 14.3795 7.4284 14.4056C7.46469 14.4318 7.5238 14.4615 7.68281 14.4796C7.8546 14.4992 8.08214 14.5 8.44152 14.5H11.5585C11.9179 14.5 12.1454 14.4992 12.3172 14.4796C12.4762 14.4615 12.5353 14.4318 12.5716 14.4056C12.6079 14.3795 12.6548 14.3328 12.7223 14.1877C12.7952 14.0309 12.8679 13.8153 12.9815 13.4743L13.1137 13.0778L13.1137 13.0778L13.1137 13.0777C13.1997 12.8198 13.275 12.5937 13.3558 12.4116C13.4427 12.2156 13.5517 12.032 13.7251 11.8781C13.8009 11.8108 13.8834 11.7513 13.9713 11.7006C14.1721 11.5848 14.3808 11.5395 14.5942 11.519C14.7925 11.5 15.0309 11.5 15.3028 11.5L16 11.5C16.4728 11.5 16.8023 11.4997 17.0603 11.4821C17.3137 11.4648 17.4613 11.4325 17.574 11.3858C17.9416 11.2336 18.2336 10.9416 18.3858 10.574C18.4325 10.4613 18.4648 10.3137 18.4821 10.0603C18.4997 9.80233 18.5 9.47278 18.5 9V7C18.5 6.04306 18.4989 5.37565 18.4312 4.87208C18.3655 4.3829 18.2452 4.12385 18.0607 3.93934C17.8762 3.75483 17.6171 3.63453 17.1279 3.56877C16.6244 3.50106 15.9569 3.5 15 3.5H14V2.5L15.0366 2.5C15.9483 2.49999 16.6832 2.49998 17.2612 2.57768C17.8612 2.65836 18.3665 2.83096 18.7678 3.23223C19.169 3.63351 19.3416 4.13876 19.4223 4.73883C19.5 5.3168 19.5 6.05167 19.5 6.96338V6.9634V9V9.01776C19.5 9.02843 19.5 9.03905 19.5 9.04962V15.0366V15.0366C19.5 15.9483 19.5 16.6832 19.4223 17.2612C19.3416 17.8612 19.169 18.3665 18.7678 18.7678C18.3665 19.169 17.8612 19.3416 17.2612 19.4223C16.6832 19.5 15.9483 19.5 15.0366 19.5H15.0366H4.9634H4.96338C4.05167 19.5 3.3168 19.5 2.73883 19.4223C2.13876 19.3416 1.63351 19.169 1.23223 18.7678C0.830956 18.3665 0.65836 17.8612 0.577683 17.2612C0.499976 16.6832 0.499987 15.9483 0.5 15.0366V15.0366V9.04781ZM1.5 12V15C1.5 15.9569 1.50106 16.6244 1.56877 17.1279C1.63453 17.6171 1.75483 17.8762 1.93934 18.0607C2.12385 18.2452 2.3829 18.3655 2.87208 18.4312C3.37565 18.4989 4.04306 18.5 5 18.5H15C15.9569 18.5 16.6244 18.4989 17.1279 18.4312C17.6171 18.3655 17.8762 18.2452 18.0607 18.0607C18.2452 17.8762 18.3655 17.6171 18.4312 17.1279C18.4989 16.6244 18.5 15.9569 18.5 15V12C18.334 12.1245 18.1517 12.2289 17.9567 12.3097C17.7019 12.4153 17.4327 12.459 17.1283 12.4798C16.8323 12.5 16.4686 12.5 16.0178 12.5H15.3246C15.0245 12.5 14.8346 12.5005 14.6897 12.5144C14.5546 12.5274 14.5021 12.5489 14.4709 12.5669C14.4417 12.5838 14.4142 12.6036 14.3889 12.626C14.362 12.6499 14.325 12.6929 14.2699 12.817C14.2109 12.95 14.1504 13.13 14.0555 13.4147L13.9219 13.8154L13.9219 13.8155L13.9219 13.8155C13.819 14.1242 13.7288 14.3948 13.629 14.6095C13.521 14.8416 13.3819 15.0543 13.1563 15.2169C12.9307 15.3795 12.6849 15.4441 12.4306 15.4732C12.1954 15.5 11.9101 15.5 11.5847 15.5H8.41532C8.08988 15.5 7.80464 15.5 7.56938 15.4732C7.31506 15.4441 7.06929 15.3795 6.84369 15.2169C6.61809 15.0543 6.47902 14.8416 6.37105 14.6095C6.27118 14.3948 6.181 14.1242 6.07811 13.8155L6.0781 13.8154L6.0781 13.8154L5.94452 13.4147C5.84963 13.13 5.78906 12.95 5.73006 12.817C5.67503 12.6929 5.638 12.6499 5.61113 12.626C5.58585 12.6036 5.55835 12.5838 5.52906 12.5669C5.49795 12.5489 5.44544 12.5274 5.31031 12.5144C5.16544 12.5005 4.97551 12.5 4.67544 12.5H3.98224C3.53136 12.5 3.16766 12.5 2.87165 12.4798C2.56728 12.459 2.29814 12.4153 2.04329 12.3097C1.84829 12.2289 1.66604 12.1245 1.5 12Z"/>
</svg>
