<svg width="24" height="25" viewBox="0 0 24 25" xmlns="http://www.w3.org/2000/svg">
<path d="M18 20.5L17.6464 20.8536L18 21.2071L18.3536 20.8536L18 20.5ZM13 5C12.7239 5 12.5 5.22386 12.5 5.5C12.5 5.77614 12.7239 6 13 6L13 5ZM13.6464 16.8536L17.6464 20.8536L18.3536 20.1464L14.3536 16.1464L13.6464 16.8536ZM18.3536 20.8536L22.3536 16.8536L21.6464 16.1464L17.6464 20.1464L18.3536 20.8536ZM18.5 20.5L18.5 9.5L17.5 9.5L17.5 20.5L18.5 20.5ZM14 5L13 5L13 6L14 6L14 5ZM18.5 9.5C18.5 7.01472 16.4853 5 14 5L14 6C15.933 6 17.5 7.567 17.5 9.5L18.5 9.5Z"/>
<path d="M6 4.5L6.35355 4.14645L6 3.79289L5.64645 4.14645L6 4.5ZM11 20C11.2761 20 11.5 19.7761 11.5 19.5C11.5 19.2239 11.2761 19 11 19L11 20ZM10.3536 8.14645L6.35355 4.14645L5.64645 4.85355L9.64645 8.85355L10.3536 8.14645ZM5.64645 4.14645L1.64645 8.14645L2.35355 8.85355L6.35355 4.85355L5.64645 4.14645ZM5.5 4.5L5.5 15.5L6.5 15.5L6.5 4.5L5.5 4.5ZM10 20L11 20L11 19L10 19L10 20ZM5.5 15.5C5.5 17.9853 7.51472 20 10 20L10 19C8.067 19 6.5 17.433 6.5 15.5L5.5 15.5Z"/>
</svg>
