<?xml version="1.0" encoding="UTF-8" standalone="no"?>
<!DOCTYPE svg PUBLIC "-//W3C//DTD SVG 1.1//EN" "http://www.w3.org/Graphics/SVG/1.1/DTD/svg11.dtd">
<svg width="100%" height="100%" viewBox="0 0 254 172" version="1.1" xmlns="http://www.w3.org/2000/svg" xmlns:xlink="http://www.w3.org/1999/xlink" xml:space="preserve" xmlns:serif="http://www.serif.com/" style="fill-rule:evenodd;clip-rule:evenodd;stroke-linejoin:round;stroke-miterlimit:2;">
    <g transform="matrix(1,0,0,1,-52.099,-189.725)">
        <path d="M57.1,267.3L170.9,191.9C175.8,189 182,189 186.9,191.9L300.7,267.3C305.2,269.5 307.1,274.9 304.9,279.4C304,281.2 302.5,282.7 300.7,283.6L285.5,293.6C248.2,234.7 170.3,217.2 111.4,254.5C95.6,264.5 82.2,277.9 72.3,293.6L57.1,283.6C52.6,281.3 50.8,275.8 53.1,271.3C53.9,269.6 55.4,268.2 57.1,267.3ZM178.8,266.4C146.1,266.5 115.8,283.3 98.4,310.9L124.6,328.3C142.6,298.5 181.4,288.9 211.2,306.9C220,312.2 227.3,319.5 232.6,328.3L258.8,310.9C241.7,283.2 211.4,266.4 178.8,266.4ZM178.8,329.4C167.3,329.5 156.7,335.7 151,345.8L168.6,357.3C171.5,359.7 175.1,361 178.8,361.1C182.6,361.1 186.2,359.8 189,357.3L206.6,345.8C201,335.7 190.4,329.4 178.8,329.4Z" style="fill:url(#_Linear1);fill-rule:nonzero;"/>
    </g>
    <defs>
        <linearGradient id="_Linear1" x1="0" y1="0" x2="1" y2="0" gradientUnits="userSpaceOnUse" gradientTransform="matrix(1.05266e-14,-171.912,171.912,1.05266e-14,178.926,361.758)"><stop offset="0" style="stop-color:rgb(239,193,26);stop-opacity:1"/><stop offset="0.33" style="stop-color:rgb(147,194,82);stop-opacity:1"/><stop offset="0.49" style="stop-color:rgb(116,186,93);stop-opacity:1"/><stop offset="0.75" style="stop-color:rgb(48,171,90);stop-opacity:1"/><stop offset="0.9" style="stop-color:rgb(39,172,107);stop-opacity:1"/><stop offset="1" style="stop-color:rgb(39,172,107);stop-opacity:1"/></linearGradient>
    </defs>
</svg>
