<svg width="25" height="25" viewBox="0 0 25 25" fill="none" xmlns="http://www.w3.org/2000/svg">
<rect width="25" height="25" rx="6" fill="white"/>
<path d="M21.3008 21.301H17.5968V15.4985C17.5968 14.1151 17.5719 12.3336 15.67 12.3336C13.7408 12.3336 13.4454 13.8408 13.4454 15.3969V21.3005H9.74143V9.37141H13.2972V11.0019H13.3452C13.7011 10.3934 14.2154 9.89284 14.8333 9.55353C15.4512 9.21422 16.1496 9.04886 16.854 9.07506C20.6083 9.07506 21.3008 11.5447 21.3008 14.7572V21.301ZM5.56174 7.74049C5.13653 7.74058 4.72084 7.61458 4.36725 7.37842C4.01365 7.14225 3.73803 6.80653 3.57525 6.41372C3.41246 6.0209 3.36982 5.58864 3.45272 5.17159C3.53561 4.75454 3.74032 4.37144 4.04096 4.07074C4.34159 3.77003 4.72464 3.56524 5.14168 3.48225C5.55871 3.39926 5.99098 3.44181 6.38383 3.6045C6.77668 3.7672 7.11246 4.04275 7.34871 4.39629C7.58495 4.74983 7.71105 5.16549 7.71105 5.5907C7.71105 6.16077 7.48462 6.70751 7.08156 7.11066C6.6785 7.51381 6.13181 7.74036 5.56174 7.74049ZM7.41373 21.3005H3.70591V9.37141H7.41421L7.41373 21.3005ZM23.1456 0.0016249H1.84432C1.60469 -0.00128786 1.36685 0.0430933 1.14439 0.132227C0.921943 0.221362 0.719257 0.353498 0.547943 0.521072C0.376628 0.688645 0.240049 0.888364 0.146025 1.10879C0.0520011 1.32922 0.00237874 1.56603 0 1.80567V23.1933C0.00569172 23.6771 0.203181 24.1388 0.549086 24.4771C0.89499 24.8153 1.36102 25.0024 1.8448 24.9973H23.1456C23.6307 25.0039 24.0984 24.8175 24.4461 24.4792C24.7938 24.1409 24.9928 23.6783 24.9995 23.1933V1.80183C24.9926 1.31708 24.7933 0.854935 24.4457 0.517065C24.098 0.179194 23.6304 -0.00673103 23.1456 0.000186333" fill="#0A66C2"/>
</svg>
