<svg viewBox="0 0 24 26" >
<path fill-rule="evenodd" clip-rule="evenodd" d="M18.8229 13.2875C18.7982 13.319 18.7779 13.354 16.3406 17.1785C18.97 17.5827 23.4258 18.7831 23.4258 21.4297C23.4258 24.4526 17.4856 26 12 26C9.06642 26 6.29747 25.5881 4.20315 24.8401C1.2038 23.7689 0.574219 22.3943 0.574219 21.4297C0.574219 18.7836 5.0352 17.5818 7.65932 17.1786L5.20496 13.3273C4.16466 11.8874 3.62109 10.1715 3.62109 8.42969C3.62109 3.80006 7.38693 0 12 0C16.6282 0 20.3789 3.80758 20.3789 8.42969C20.3789 10.1726 19.8465 11.8448 18.8392 13.2655C18.8297 13.279 18.8263 13.2832 18.8229 13.2875ZM6.45123 12.4509C6.46037 12.4635 6.46911 12.4763 6.47749 12.4894L12 21.1549C17.522 12.4901 17.5536 12.4352 17.5934 12.3871C17.5962 12.3837 17.5991 12.3803 17.6039 12.3739C18.4228 11.2144 18.8555 9.85085 18.8555 8.42969C18.8555 4.62155 15.7801 1.52344 12 1.52344C8.21202 1.52344 5.14453 4.62018 5.14453 8.42969C5.14453 9.84857 5.58557 11.26 6.45123 12.4509ZM2.09766 21.4297C2.09766 22.7153 6.00812 24.4766 12 24.4766C18.0271 24.4766 21.9023 22.7044 21.9023 21.4297C21.9023 20.5656 19.893 19.1448 15.4404 18.591L12.6423 22.9817C12.5025 23.2011 12.2602 23.334 11.9999 23.334C11.7397 23.334 11.4975 23.2011 11.3576 22.9817L8.55947 18.591C4.10697 19.1448 2.09766 20.5656 2.09766 21.4297ZM8.19141 8.42969C8.19141 6.32963 9.89994 4.62109 12 4.62109C14.1001 4.62109 15.8086 6.32963 15.8086 8.42969C15.8086 10.5297 14.1001 12.2383 12 12.2383C9.89994 12.2383 8.19141 10.5297 8.19141 8.42969ZM9.71484 8.42969C9.71484 9.68972 10.74 10.7148 12 10.7148C13.26 10.7148 14.2852 9.68972 14.2852 8.42969C14.2852 7.16965 13.26 6.14453 12 6.14453C10.74 6.14453 9.71484 7.16965 9.71484 8.42969Z" />
</svg>
