<svg viewBox="0 0 12 18" >
<path d="M7.65039 1.5H5.85039C5.6017 1.5 5.40039 1.7013 5.40039 1.95C5.40039 2.1987 5.6017 2.4 5.85039 2.4H7.65039C7.89909 2.4 8.10039 2.1987 8.10039 1.95C8.10039 1.7013 7.89909 1.5 7.65039 1.5Z"  />
<path d="M9.59961 0H2.39961C1.40722 0 0.599609 0.807609 0.599609 1.8V16.2C0.599609 17.1924 1.40722 18 2.39961 18H9.59961C10.592 18 11.3996 17.1924 11.3996 16.2V1.8C11.3996 0.807609 10.592 0 9.59961 0ZM10.4996 16.2C10.4996 16.6971 10.0967 17.1 9.59961 17.1H2.39961C1.9025 17.1 1.49961 16.6971 1.49961 16.2V1.8C1.49961 1.30289 1.9025 0.9 2.39961 0.9H9.59961C10.0967 0.9 10.4996 1.30289 10.4996 1.8V16.2Z"  />
<path d="M5.99961 16.5002C6.49667 16.5002 6.89961 16.0973 6.89961 15.6002C6.89961 15.1031 6.49667 14.7002 5.99961 14.7002C5.50255 14.7002 5.09961 15.1031 5.09961 15.6002C5.09961 16.0973 5.50255 16.5002 5.99961 16.5002Z" />
<path d="M4.35039 2.4C4.59892 2.4 4.80039 2.19853 4.80039 1.95C4.80039 1.70147 4.59892 1.5 4.35039 1.5C4.10186 1.5 3.90039 1.70147 3.90039 1.95C3.90039 2.19853 4.10186 2.4 4.35039 2.4Z" />
</svg>
