<svg  viewBox="0 0 19 19"  >
<path d="M7.98599 2.98599V7.36099C7.98549 7.5266 7.91949 7.68528 7.80238 7.80238C7.68528 7.91949 7.5266 7.98549 7.36099 7.98599H2.98599C2.73735 7.98599 2.49889 7.88722 2.32308 7.7114C2.14726 7.53559 2.04849 7.29713 2.04849 7.04849C2.04849 6.79985 2.14726 6.56139 2.32308 6.38558C2.49889 6.20976 2.73735 6.11099 2.98599 6.11099H4.78599L0.251614 1.57661C0.0860145 1.3989 -0.00413921 1.16384 0.000146059 0.920961C0.00443133 0.678085 0.102821 0.446354 0.274587 0.274587C0.446354 0.102821 0.678085 0.00443133 0.920961 0.000146059C1.16384 -0.00413921 1.3989 0.0860145 1.57661 0.251614L6.11099 4.78599V2.98599C6.11099 2.73735 6.20976 2.49889 6.38558 2.32308C6.56139 2.14726 6.79985 2.04849 7.04849 2.04849C7.29713 2.04849 7.53559 2.14726 7.7114 2.32308C7.88722 2.49889 7.98599 2.73735 7.98599 2.98599Z" />
<path d="M8.03276 10.625V15C8.03276 15.2486 7.93399 15.4871 7.75817 15.6629C7.58236 15.8387 7.3439 15.9375 7.09526 15.9375C6.84662 15.9375 6.60816 15.8387 6.43235 15.6629C6.25653 15.4871 6.15776 15.2486 6.15776 15V13.2L1.62339 17.7344C1.53756 17.8265 1.43406 17.9004 1.31906 17.9516C1.20406 18.0028 1.07992 18.0304 0.954038 18.0326C0.82816 18.0348 0.703123 18.0117 0.586387 17.9645C0.469652 17.9174 0.363611 17.8472 0.274587 17.7582C0.185564 17.6691 0.115382 17.5631 0.0682311 17.4464C0.0210798 17.3296 -0.00207507 17.2046 0.000145906 17.0787C0.00236689 16.9528 0.0299182 16.8287 0.0811582 16.7137C0.132398 16.5987 0.206276 16.4952 0.298385 16.4094L4.83276 11.875H3.03276C2.78412 11.875 2.54566 11.7762 2.36985 11.6004C2.19403 11.4246 2.09526 11.1861 2.09526 10.9375C2.09526 10.6889 2.19403 10.4504 2.36985 10.2746C2.54566 10.0988 2.78412 10 3.03276 10H7.40776C7.57337 10.0005 7.73205 10.0665 7.84916 10.1836C7.96626 10.3007 8.03227 10.4594 8.03276 10.625V10.625Z" />
<path d="M17.7344 16.4094C17.8265 16.4952 17.9004 16.5987 17.9516 16.7137C18.0028 16.8287 18.0304 16.9528 18.0326 17.0787C18.0348 17.2046 18.0117 17.3296 17.9645 17.4464C17.9174 17.5631 17.8472 17.6691 17.7582 17.7582C17.6691 17.8472 17.5631 17.9174 17.4464 17.9645C17.3296 18.0117 17.2046 18.0348 17.0787 18.0326C16.9528 18.0304 16.8287 18.0028 16.7137 17.9516C16.5987 17.9004 16.4952 17.8265 16.4094 17.7344L11.875 13.2V15C11.875 15.2486 11.7762 15.4871 11.6004 15.6629C11.4246 15.8387 11.1861 15.9375 10.9375 15.9375C10.6889 15.9375 10.4504 15.8387 10.2746 15.6629C10.0988 15.4871 10 15.2486 10 15V10.625C10.0005 10.4594 10.0665 10.3007 10.1836 10.1836C10.3007 10.0665 10.4594 10.0005 10.625 10H15C15.2486 10 15.4871 10.0988 15.6629 10.2746C15.8387 10.4504 15.9375 10.6889 15.9375 10.9375C15.9375 11.1861 15.8387 11.4246 15.6629 11.6004C15.4871 11.7762 15.2486 11.875 15 11.875H13.2L17.7344 16.4094Z" />
<path d="M17.7344 0.274175C17.8215 0.36109 17.8907 0.464347 17.9379 0.57803C17.985 0.691714 18.0093 0.813589 18.0093 0.936675C18.0093 1.05976 17.985 1.18164 17.9379 1.29532C17.8907 1.409 17.8215 1.51226 17.7344 1.59918L13.2 6.13355H15C15.2486 6.13355 15.4871 6.23232 15.6629 6.40814C15.8387 6.58395 15.9375 6.82241 15.9375 7.07105C15.9375 7.31969 15.8387 7.55815 15.6629 7.73396C15.4871 7.90978 15.2486 8.00855 15 8.00855H10.625C10.4594 8.00806 10.3007 7.94205 10.1836 7.82494C10.0665 7.70784 10.0005 7.54916 10 7.38355V3.00855C10 2.75991 10.0988 2.52145 10.2746 2.34564C10.4504 2.16982 10.6889 2.07105 10.9375 2.07105C11.1861 2.07105 11.4246 2.16982 11.6004 2.34564C11.7762 2.52145 11.875 2.75991 11.875 3.00855V4.80855L16.4094 0.274175C16.5852 0.0986123 16.8234 0 17.0719 0C17.3203 0 17.5586 0.0986123 17.7344 0.274175V0.274175Z" />
</svg>
