<svg width="40" height="30" viewBox="0 0 40 30" fill="none" xmlns="http://www.w3.org/2000/svg">
<g clip-path="url(#clip0_3932_87476)">
<path d="M20.0007 0.125C9.04172 0.125 0.166016 0.125 0.166016 10.6669V18.5217C0.166016 29.0636 9.04172 29.0636 20.0007 29.0636C30.9597 29.0636 39.8354 29.0636 39.8354 18.5217V10.6669C39.8354 0.125 30.9597 0.125 20.0007 0.125ZM30.9597 11.6177V17.571C30.3766 22.4078 25.6678 22.0356 20.0007 22.0356C13.9171 22.0356 9.04172 22.4905 9.04172 16.4132V12.7754C9.04172 6.69814 13.9171 7.15303 20.0007 7.15303C25.6678 7.15303 30.3766 6.78079 30.9597 11.6177Z" fill="url(#paint0_linear_3932_87476)"/>
</g>
<defs>
<linearGradient id="paint0_linear_3932_87476" x1="39.8354" y1="14.5943" x2="0.166016" y2="14.5943" gradientUnits="userSpaceOnUse">
<stop stop-color="#46A6FF"/>
<stop offset="1" stop-color="#007DF2"/>
</linearGradient>
<clipPath id="clip0_3932_87476">
<rect width="40" height="29.1892" fill="white"/>
</clipPath>
</defs>
</svg>
