<?xml version="1.0" encoding="UTF-8" standalone="no"?>
<!DOCTYPE svg PUBLIC "-//W3C//DTD SVG 1.1//EN" "http://www.w3.org/Graphics/SVG/1.1/DTD/svg11.dtd">
<svg width="100%" height="100%" viewBox="0 0 3766 3766" version="1.1" xmlns="http://www.w3.org/2000/svg" xmlns:xlink="http://www.w3.org/1999/xlink" xml:space="preserve" xmlns:serif="http://www.serif.com/" style="fill-rule:evenodd;clip-rule:evenodd;stroke-linejoin:round;stroke-miterlimit:2;">
    <g transform="matrix(1,0,0,1,-16867.3,-1042.12)">
        <g transform="matrix(4.16667,0,0,4.16667,0,0)">
            <g transform="matrix(0.26251,0,0,0.274238,-457.403,-159.363)">
                <ellipse cx="18886.9" cy="3129.78" rx="1432.76" ry="1524.76" style="fill:rgb(235,235,235);"/>
            </g>
        </g>
        <g transform="matrix(4.16667,0,0,4.16667,0,0)">
            <g transform="matrix(1,0,0,1,25.3451,-175.71)">
                <clipPath id="_clip1">
                    <rect x="4022.8" y="425.818" width="903.71" height="903.712"/>
                </clipPath>
                <g clip-path="url(#_clip1)">
                    <path d="M4471.16,978.415C4158.2,877.575 4521.55,587.557 4493.18,481.645C4580.9,531.228 4640.11,625.348 4640.11,733.3C4640.11,835.721 4586.81,925.688 4506.43,976.986L4506.23,976.746L4506.49,976.576C4504.02,973.813 4501.75,971.014 4499.62,968.159C4434.57,874.787 4544.12,733.846 4506.3,672.299L4504.28,669.271L4501.98,666.377C4510.04,704.671 4494.78,742.476 4479.07,781.368L4477.95,784.143L4477.88,784.319L4476.84,786.923L4476.69,787.281L4475.72,789.707L4475.5,790.246L4474.6,792.5L4474.32,793.215L4473.49,795.29L4473.13,796.193L4472.39,798.083L4471.96,799.169L4471.29,800.884L4470.79,802.159L4470.2,803.7L4469.65,805.142L4469.46,805.628L4468.73,807.54L4468.51,808.143L4468.06,809.326L4467.83,809.945L4467.13,811.823L4466.69,813.052L4466.13,814.551L4465.61,815.989L4465.02,817.646L4464.68,818.589L4464.01,820.513L4463.62,821.664L4462.99,823.463L4462.97,823.528L4462.05,826.291L4462.02,826.387L4461.08,829.259L4461.06,829.344L4460.17,832.132L4460.09,832.405L4459.29,835.026L4458.6,837.339L4458.39,838.073L4457.85,839.943L4457.52,841.126L4457.03,842.929L4456.71,844.098L4456.24,845.905L4455.94,847.067L4455.43,849.115L4455.22,849.965L4454.74,851.987L4454.49,853.079L4454.03,855.126L4453.85,855.958L4453.41,858.109L4453.22,859.013L4452.8,861.209L4452.64,862.055L4452.26,864.114L4452.08,865.258L4451.73,867.294L4451.62,868.06L4451.28,870.348L4451.2,870.887C4450.54,875.637 4450.04,880.427 4449.75,885.276L4449.71,885.744L4449.59,888.117L4449.56,888.942L4449.49,891.242L4449.46,892.081L4449.43,894.537L4449.42,895.206C4449.42,895.999 4449.42,896.786 4449.44,897.586L4449.45,898.508L4449.49,900.718L4449.53,901.72L4449.62,904.012L4449.67,904.877L4449.83,907.289L4449.88,908.075L4450.08,910.519L4450.16,911.313L4450.42,913.833L4450.49,914.463L4450.82,917.141L4450.87,917.531C4451.86,924.856 4453.38,932.31 4455.5,939.908L4455.63,940.375L4456.46,943.196L4456.64,943.794L4457.5,946.525L4457.74,947.272L4458.65,949.962L4458.92,950.741L4459.83,953.291L4460.22,954.336L4461.18,956.833L4461.56,957.787L4462.62,960.394L4462.99,961.276L4464.14,963.968L4464.5,964.761L4465.76,967.556L4466.11,968.315L4467.43,971.085L4467.86,971.963L4469.26,974.77L4469.51,975.237L4471.16,978.415ZM4212.47,835.2C4220.76,922.373 4573.54,1038.1 4367.45,1200.84L4367.8,1197.99L4367.85,1197.57L4368.12,1195.09L4368.2,1194.31L4368.41,1191.87L4368.47,1191.2L4368.63,1188.75L4368.68,1188.06L4368.79,1185.73L4368.82,1184.97L4368.89,1182.72L4368.91,1181.9L4368.92,1179.76L4368.92,1178.87L4368.89,1176.71L4368.88,1176.06L4368.81,1173.78L4368.78,1173.16L4368.67,1170.88L4368.63,1170.38L4368.47,1168.03L4368.43,1167.65C4367.9,1161.37 4366.96,1155.37 4365.65,1149.61L4365.59,1149.31L4365.09,1147.21L4364.97,1146.71L4364.46,1144.76L4364.29,1144.14L4363.76,1142.25L4363.59,1141.65L4363.03,1139.8L4362.82,1139.15L4362.25,1137.4L4362,1136.65L4361.42,1134.97L4361.17,1134.29L4360.52,1132.5L4360.33,1132L4359.62,1130.17L4359.36,1129.55L4358.68,1127.85L4358.41,1127.24L4357.66,1125.49L4357.51,1125.15C4355.94,1121.61 4354.23,1118.17 4352.41,1114.8L4352.2,1114.41L4351.3,1112.79L4351.01,1112.26L4350.18,1110.82L4349.73,1110.02L4348.87,1108.58L4348.52,1108L4347.58,1106.47L4347.2,1105.85L4346.26,1104.36L4345.89,1103.79L4344.98,1102.39L4344.49,1101.64L4343.56,1100.26L4343.17,1099.68L4342.22,1098.29L4341.67,1097.5L4340.81,1096.29L4340.25,1095.49L4339.38,1094.29L4338.79,1093.49L4337.88,1092.24L4337.51,1091.75L4336.35,1090.21L4335.03,1088.47L4334.89,1088.3L4333.41,1086.39L4331.91,1084.51L4331.85,1084.44L4330.36,1082.6L4329.39,1081.42L4328.78,1080.67L4327.73,1079.42L4327.21,1078.8L4326.32,1077.73L4325.52,1076.79L4324.69,1075.83L4324.02,1075.03L4322.97,1073.82L4322.62,1073.43L4321.97,1072.66L4321.62,1072.28L4320.54,1071.05L4320.27,1070.74L4319.46,1069.81L4318.57,1068.82L4317.86,1068.01L4316.87,1066.91L4316.25,1066.22L4315.16,1065.01L4314.65,1064.44L4313.45,1063.11L4313.04,1062.66L4311.74,1061.22L4311.43,1060.88L4310.02,1059.34L4309.81,1059.1L4308.3,1057.45L4308.2,1057.34L4306.58,1055.57C4283.99,1030.84 4262.03,1006.81 4257.39,975.906L4256.48,978.708L4255.81,981.542C4244.65,1038.14 4365.93,1113.08 4343.29,1201.1C4342.5,1203.82 4341.58,1206.56 4340.5,1209.31L4340.74,1209.36L4340.66,1209.6C4266.2,1193.62 4201.23,1141.15 4172.67,1064.5C4142.56,983.713 4160.64,896.76 4212.47,835.2ZM4520.64,1244.74C4326.59,1030.29 4730.93,969.175 4755.88,876.016C4800.91,952.36 4804.62,1050.1 4757.14,1132.33C4712.1,1210.35 4631.92,1255.44 4548.13,1259.17L4548.09,1258.89L4548.37,1258.88C4547.69,1255.69 4547.19,1252.56 4546.84,1249.46C4538.35,1149.71 4683.78,1090.53 4682.04,1027.02L4681.82,1023.82L4681.34,1020.6C4670.65,1053.32 4642.4,1075.4 4613.33,1098.12L4611.26,1099.74L4611.12,1099.85L4609.18,1101.37L4608.91,1101.58L4607.1,1103L4606.7,1103.32L4605.03,1104.64L4604.49,1105.06L4602.95,1106.27L4602.29,1106.8L4600.88,1107.92L4600.08,1108.55L4598.81,1109.57L4597.88,1110.32L4596.75,1111.23L4595.69,1112.08L4595.34,1112.37L4593.94,1113.51L4593.5,1113.87L4592.64,1114.58L4592.2,1114.95L4590.84,1116.07L4589.96,1116.8L4588.88,1117.7L4587.85,1118.58L4586.67,1119.58L4586,1120.15L4584.64,1121.32L4583.83,1122.02L4582.53,1123.16L4580.6,1124.86L4580.54,1124.92L4578.5,1126.75L4576.6,1128.48L4576.42,1128.65L4574.66,1130.29L4573.12,1131.75L4572.63,1132.22L4571.41,1133.41L4570.63,1134.17L4569.46,1135.32L4568.7,1136.07L4567.55,1137.24L4566.81,1138L4565.52,1139.33L4564.99,1139.89L4563.74,1141.22L4563.07,1141.94L4561.81,1143.3L4561.32,1143.85L4560.03,1145.3L4559.49,1145.91L4558.2,1147.39L4557.71,1147.95L4556.52,1149.37L4555.87,1150.15L4554.71,1151.55L4554.29,1152.09L4553.02,1153.68L4552.73,1154.06C4550.13,1157.38 4547.64,1160.82 4545.29,1164.38L4545.07,1164.71L4543.93,1166.48L4543.54,1167.09L4542.47,1168.81L4542.08,1169.44L4540.97,1171.29L4540.68,1171.8L4539.64,1173.62L4539.24,1174.33L4538.31,1176.03L4537.89,1176.81L4536.96,1178.6L4536.61,1179.28L4535.67,1181.18L4535.37,1181.8L4534.45,1183.75L4534.15,1184.39L4533.24,1186.43L4533.02,1186.94L4532.09,1189.12L4531.96,1189.44C4529.49,1195.45 4527.38,1201.8 4525.65,1208.52L4525.54,1208.93L4524.93,1211.45L4524.8,1211.98L4524.25,1214.45L4524.11,1215.11L4523.62,1217.57L4523.49,1218.28L4523.06,1220.63L4522.9,1221.59L4522.53,1223.91L4522.4,1224.81L4522.06,1227.26L4521.95,1228.1L4521.65,1230.66L4521.56,1231.41L4521.3,1234.09L4521.24,1234.83L4521.02,1237.52L4520.97,1238.38L4520.8,1241.12L4520.78,1241.6L4520.64,1244.74ZM4926.51,877.673C4926.51,628.125 4724.21,425.818 4474.65,425.818C4225.1,425.818 4022.8,628.125 4022.8,877.673C4022.8,1127.22 4225.1,1329.53 4474.65,1329.53C4724.21,1329.53 4926.51,1127.22 4926.51,877.673Z" style="fill:url(#_Linear2);"/>
                </g>
            </g>
        </g>
    </g>
    <defs>
        <linearGradient id="_Linear2" x1="0" y1="0" x2="1" y2="0" gradientUnits="userSpaceOnUse" gradientTransform="matrix(5.53361e-15,-903.707,903.707,5.53361e-15,4474.65,1329.53)"><stop offset="0" style="stop-color:rgb(28,83,41);stop-opacity:1"/><stop offset="0.7" style="stop-color:rgb(125,194,66);stop-opacity:1"/><stop offset="1" style="stop-color:rgb(179,211,52);stop-opacity:1"/></linearGradient>
    </defs>
</svg>
