<svg width="25" height="25" viewBox="0 0 25 25" fill="none" xmlns="http://www.w3.org/2000/svg">
<path d="M12.4795 0.297852C5.61446 0.297852 0.0390625 5.79389 0.0390625 12.5598C0.0390625 19.3256 5.61446 24.8217 12.4795 24.8217C19.3446 24.8217 24.92 19.3256 24.92 12.5598C24.92 5.79389 19.3446 0.297852 12.4795 0.297852ZM5.0589 11.6669C8.61049 10.5161 11.9835 9.66293 12.8565 7.8177C13.9478 9.66293 16.6462 10.3375 19.7811 11.4288C20.1581 12.1828 20.3962 12.9963 20.5351 13.8693H18.4121C17.9756 12.8177 16.924 12.0637 15.7137 12.0637C14.5033 12.0637 13.4518 12.8177 13.0153 13.8693H11.924C11.4875 12.8177 10.4359 12.0637 9.22557 12.0637C8.01525 12.0637 6.96367 12.8177 6.52716 13.8693H4.42398C4.52319 13.0955 4.74144 12.3613 5.0589 11.6669ZM17.4795 14.9804C17.4795 15.9526 16.6859 16.7463 15.7137 16.7463C14.7414 16.7463 13.9478 15.9526 13.9478 14.9804C13.9478 14.0082 14.7414 13.2145 15.7137 13.2145C16.6859 13.2344 17.4795 14.0082 17.4795 14.9804ZM10.9914 14.9804C10.9914 15.9526 10.1978 16.7463 9.22557 16.7463C8.25335 16.7463 7.4597 15.9526 7.4597 14.9804C7.4597 14.0082 8.25335 13.2145 9.22557 13.2145C10.1978 13.2344 10.9914 14.0082 10.9914 14.9804ZM12.4795 23.155C8.03509 23.155 4.44382 19.6034 4.34462 15.1788H6.32875C6.42795 16.7066 7.69779 17.8971 9.24541 17.8971C10.793 17.8971 12.043 16.7066 12.1621 15.1788H12.8367C12.9359 16.7066 14.2057 17.8971 15.7533 17.8971C17.301 17.8971 18.551 16.7066 18.67 15.1788H20.6541C20.5153 19.6034 16.924 23.155 12.4795 23.155Z" fill="#EE6513"/>
</svg>
