<svg viewBox="0 0 20 23" >
<path fill-rule="evenodd" clip-rule="evenodd" d="M5.69922 3.225L6.29922 4.025L9.49922 1.625V10.625H10.4992V1.625L13.6992 4.025L14.2992 3.225L9.99922 0L5.69922 3.225ZM0.5 12.0413C0.5 12.0335 0.5 12.0257 0.5 12.0178V12.0178V12V9.96342V9.96337C0.499988 9.05167 0.499978 8.3168 0.577684 7.73883C0.658362 7.13876 0.830958 6.63351 1.23224 6.23224C1.63351 5.83096 2.13876 5.65836 2.73884 5.57768C3.31681 5.49998 4.05169 5.49999 4.96342 5.5L6 5.5V6.5H5C4.04306 6.5 3.37565 6.50106 2.87208 6.56877C2.3829 6.63454 2.12385 6.75483 1.93934 6.93934C1.75483 7.12385 1.63454 7.3829 1.56877 7.87208C1.50106 8.37565 1.5 9.04306 1.5 10V12.0286C1.50002 12.4861 1.50063 12.8076 1.51787 13.0603C1.53517 13.3137 1.5675 13.4613 1.61418 13.574C1.76642 13.9416 2.05843 14.2336 2.42598 14.3858C2.53867 14.4325 2.68627 14.4648 2.93973 14.4821C3.19767 14.4997 3.52722 14.5 4 14.5L4.69723 14.5C4.96911 14.5 5.2075 14.5 5.40584 14.519C5.61919 14.5395 5.8279 14.5848 6.02869 14.7006C6.11656 14.7513 6.19906 14.8108 6.27492 14.8781C6.44829 15.032 6.55731 15.2156 6.6442 15.4116C6.72498 15.5937 6.80036 15.8199 6.88632 16.0778L7.0185 16.4743C7.13214 16.8153 7.20481 17.0309 7.27774 17.1877C7.34525 17.3328 7.39212 17.3795 7.42841 17.4056C7.46469 17.4318 7.5238 17.4615 7.68281 17.4796C7.8546 17.4992 8.08214 17.5 8.44152 17.5H11.5585C11.9179 17.5 12.1454 17.4992 12.3172 17.4796C12.4762 17.4615 12.5353 17.4318 12.5716 17.4056C12.6079 17.3795 12.6548 17.3328 12.7223 17.1877C12.7952 17.0309 12.8679 16.8153 12.9815 16.4743L13.1137 16.0778L13.1137 16.0777L13.1137 16.0777C13.1997 15.8198 13.275 15.5937 13.3558 15.4116C13.4427 15.2156 13.5517 15.032 13.7251 14.8781C13.8009 14.8108 13.8834 14.7513 13.9713 14.7006C14.1721 14.5848 14.3808 14.5395 14.5942 14.519C14.7925 14.5 15.0309 14.5 15.3028 14.5L16 14.5C16.4728 14.5 16.8023 14.4997 17.0603 14.4821C17.3137 14.4648 17.4613 14.4325 17.574 14.3858C17.9416 14.2336 18.2336 13.9416 18.3858 13.574C18.4325 13.4613 18.4648 13.3137 18.4821 13.0603C18.4997 12.8023 18.5 12.4728 18.5 12V10C18.5 9.04306 18.4989 8.37565 18.4312 7.87208C18.3655 7.3829 18.2452 7.12385 18.0607 6.93934C17.8762 6.75483 17.6171 6.63454 17.1279 6.56877C16.6244 6.50106 15.9569 6.5 15 6.5H14V5.5L15.0366 5.5C15.9483 5.49999 16.6832 5.49998 17.2612 5.57768C17.8612 5.65836 18.3665 5.83096 18.7678 6.23224C19.169 6.63351 19.3416 7.13876 19.4223 7.73883C19.5 8.3168 19.5 9.05167 19.5 9.96338V9.9634V12V12.0178C19.5 12.0284 19.5 12.0391 19.5 12.0496V18.0366V18.0366C19.5 18.9483 19.5 19.6832 19.4223 20.2612C19.3416 20.8612 19.169 21.3665 18.7678 21.7678C18.3665 22.169 17.8612 22.3416 17.2612 22.4223C16.6832 22.5 15.9483 22.5 15.0366 22.5H4.9634C4.05168 22.5 3.31681 22.5 2.73883 22.4223C2.13876 22.3416 1.63351 22.169 1.23224 21.7678C0.830958 21.3665 0.658362 20.8612 0.577684 20.2612C0.499978 19.6832 0.499988 18.9483 0.5 18.0366V18.0366V12.0413ZM1.5 15V18C1.5 18.9569 1.50106 19.6244 1.56877 20.1279C1.63454 20.6171 1.75483 20.8762 1.93934 21.0607C2.12385 21.2452 2.3829 21.3655 2.87208 21.4312C3.37565 21.4989 4.04306 21.5 5 21.5H15C15.9569 21.5 16.6244 21.4989 17.1279 21.4312C17.6171 21.3655 17.8762 21.2452 18.0607 21.0607C18.2452 20.8762 18.3655 20.6171 18.4312 20.1279C18.4989 19.6244 18.5 18.9569 18.5 18V15C18.334 15.1245 18.1517 15.2289 17.9567 15.3097C17.7019 15.4153 17.4327 15.459 17.1283 15.4798C16.8323 15.5 16.4686 15.5 16.0178 15.5H15.3246C15.0245 15.5 14.8346 15.5005 14.6897 15.5144C14.5546 15.5274 14.5021 15.5489 14.4709 15.5669C14.4417 15.5838 14.4142 15.6036 14.3889 15.626C14.362 15.6499 14.325 15.6929 14.2699 15.817C14.2109 15.95 14.1504 16.13 14.0555 16.4147L13.9219 16.8154L13.9219 16.8155C13.819 17.1242 13.7288 17.3948 13.629 17.6095C13.521 17.8416 13.3819 18.0543 13.1563 18.2169C12.9307 18.3795 12.6849 18.4441 12.4306 18.4732C12.1954 18.5 11.9101 18.5 11.5847 18.5H11.5847H11.5847H8.41532H8.4153H8.41529C8.08986 18.5 7.80463 18.5 7.56938 18.4732C7.31506 18.4441 7.0693 18.3795 6.8437 18.2169C6.61809 18.0543 6.47902 17.8416 6.37105 17.6095C6.27118 17.3948 6.18099 17.1242 6.0781 16.8154L5.94452 16.4147C5.84963 16.13 5.78907 15.95 5.73007 15.817C5.67503 15.6929 5.638 15.6499 5.61114 15.626C5.58585 15.6036 5.55835 15.5838 5.52906 15.5669C5.49795 15.5489 5.44544 15.5274 5.31031 15.5144C5.16544 15.5005 4.97551 15.5 4.67545 15.5H3.98224C3.53136 15.5 3.16766 15.5 2.87166 15.4798C2.56728 15.459 2.29814 15.4153 2.04329 15.3097C1.84829 15.2289 1.66604 15.1245 1.5 15Z" />
</svg>
