<svg width="20" height="20" viewBox="0 0 20 20" fill="none" xmlns="http://www.w3.org/2000/svg">
<path d="M11.9704 3.40949C12.6235 2.97412 12.95 2.75643 13.3058 2.79166C13.6615 2.82689 13.939 3.10439 14.494 3.65938L16.3419 5.50729C16.8969 6.06228 17.1744 6.33978 17.2096 6.69555C17.2449 7.05132 17.0272 7.37785 16.5918 8.0309L15.3695 9.86435C15.0472 10.3479 14.886 10.5896 14.7438 10.8403C14.419 11.413 14.166 12.0235 13.9908 12.6582C13.9141 12.936 13.8571 13.2209 13.7432 13.7907L13.584 14.5865C13.4661 15.1758 12.7833 15.4516 12.2892 15.1096V15.1096C9.39874 13.1085 6.89282 10.6026 4.89172 7.71209V7.71209C4.54965 7.21799 4.8255 6.53516 5.41479 6.4173L6.21059 6.25814C6.78042 6.14418 7.06533 6.08719 7.3431 6.0105C7.97776 5.83526 8.58835 5.58234 9.16103 5.25749C9.41167 5.11531 9.65343 4.95413 10.137 4.63179L11.9704 3.40949Z" stroke="white"/>
<path d="M4.16797 15.834L7.91797 12.084" stroke="white" stroke-linecap="round"/>
</svg>
