<svg  viewBox="0 0 35 35" fill="none" xmlns="http://www.w3.org/2000/svg">
<path fill-rule="evenodd" clip-rule="evenodd" d="M16.2796 1.4161C20.0562 1.12954 23.6562 2.19132 26.5683 4.16485C26.8815 4.37707 27.3074 4.29525 27.5196 3.98211C27.7318 3.66897 27.65 3.24308 27.3368 3.03086C24.1813 0.892339 20.2761 -0.260949 16.176 0.0501613C6.53918 0.781385 -0.680234 9.18646 0.0509896 18.8232C0.782213 28.46 9.18729 35.6794 18.8241 34.9482C28.4609 34.217 35.6803 25.812 34.949 16.1751C34.7043 12.9492 33.5988 9.9922 31.8743 7.5144C31.6582 7.20392 31.2313 7.1274 30.9208 7.34349C30.6104 7.55958 30.5338 7.98645 30.7499 8.29693C32.3386 10.5795 33.3573 13.3032 33.5831 16.2788C34.2571 25.1613 27.6028 32.9083 18.7204 33.5823C9.83802 34.2563 2.09091 27.602 1.41693 18.7196C0.742944 9.83719 7.39722 2.09008 16.2796 1.4161ZM7.1765 12.9811C7.1765 12.7869 7.38686 12.6654 7.55513 12.7625L15.3806 17.2806C15.5489 17.3778 15.5489 17.6207 15.3806 17.7178L7.55512 22.2359C7.38687 22.3331 7.1765 22.2117 7.1765 22.0173V12.9811ZM8.24006 11.5762C7.1586 10.9518 5.80664 11.7323 5.80664 12.9811V22.0173C5.80664 23.2661 7.15847 24.0467 8.24008 23.4222L16.0656 18.9042C17.1471 18.2797 17.1471 16.7187 16.0655 16.0943L8.24006 11.5762ZM18.3828 12.7273C18.3828 11.9707 18.9961 11.3574 19.7527 11.3574H21.493C22.2496 11.3574 22.8629 11.9707 22.8629 12.7273V22.2711C22.8629 23.0276 22.2496 23.641 21.493 23.641H19.7527C18.9961 23.641 18.3828 23.0277 18.3828 22.2711V12.7273ZM21.493 12.7273H19.7527V22.2711H21.493V12.7273ZM26.0828 11.3574C25.3262 11.3574 24.7129 11.9707 24.7129 12.7273V22.2711C24.7129 23.0277 25.3262 23.641 26.0828 23.641H27.8231C28.5797 23.641 29.193 23.0276 29.193 22.2711V12.7273C29.193 11.9707 28.5797 11.3574 27.8231 11.3574H26.0828ZM26.0828 12.7273H27.8231V22.2711H26.0828V12.7273Z" />
</svg>
