<svg  viewBox="0 0 16 24"  >
<path fill-rule="evenodd" clip-rule="evenodd" d="M6.70696 9.70711L5.29274 8.29289L7.57023 6.01541C6.66674 6.08029 5.78768 6.34908 5 6.80385C4.08788 7.33046 3.33046 8.08788 2.80385 9C2.27724 9.91211 2 10.9468 2 12C2 13.0532 2.27724 14.0879 2.80385 15C3.07999 15.4783 2.91611 16.0899 2.43782 16.366C1.95953 16.6422 1.34794 16.4783 1.0718 16C0.36965 14.7838 0 13.4043 0 12C0 10.5957 0.36965 9.21615 1.0718 8C1.77394 6.78384 2.78385 5.77394 4 5.0718C5.09925 4.43714 6.332 4.07414 7.59585 4.01021L5.29274 1.70711L6.70696 0.292894L11.4141 5L6.70696 9.70711ZM13.1962 9C12.92 8.52171 13.0839 7.91012 13.5622 7.63398C14.0405 7.35783 14.6521 7.52171 14.9282 8C15.6304 9.21615 16 10.5957 16 12C16 13.4043 15.6304 14.7838 14.9282 16C14.2261 17.2162 13.2162 18.2261 12 18.9282C10.9007 19.5629 9.668 19.9259 8.40415 19.9898L10.7073 22.2929L9.29304 23.7071L4.58594 19L9.29304 14.2929L10.7073 15.7071L8.42977 17.9846C9.33326 17.9197 10.2123 17.6509 11 17.1962C11.9121 16.6695 12.6695 15.9121 13.1962 15C13.7228 14.0879 14 13.0532 14 12C14 10.9468 13.7228 9.91212 13.1962 9Z" />
</svg>
