<svg width="25" height="23" viewBox="0 0 25 23" fill="none" xmlns="http://www.w3.org/2000/svg">
<path d="M7.41945 12.9919C7.76626 12.594 7.48375 11.9729 6.95594 11.9729H5.37568C5.36539 11.8165 5.35963 11.6589 5.35963 11.5C5.35963 7.56275 8.56278 4.35961 12.5 4.35961C14.3921 4.35961 16.1144 5.09958 17.3934 6.30502L19.6217 3.69818C17.6711 1.91375 15.1608 0.93634 12.5 0.93634C9.67835 0.93634 7.0256 2.03518 5.03038 4.03035C3.0352 6.02558 1.93636 8.67833 1.93636 11.5C1.93636 11.6582 1.94032 11.8158 1.94719 11.9728H0.616135C0.0883265 11.9728 -0.194238 12.594 0.152626 12.9918L3.15531 16.4361L3.78601 17.1595L6.05043 14.5621L7.41945 12.9919Z" fill="white"/>
<path d="M24.8477 10.9824L22.6081 8.41343L21.2143 6.81468L19.2243 9.0973L17.5809 10.9824C17.2341 11.3802 17.5166 12.0014 18.0444 12.0014H19.6228C19.3646 15.7056 16.2689 18.6404 12.5003 18.6404C10.8552 18.6404 9.33849 18.0809 8.12983 17.1425L5.90137 19.7496C7.76824 21.2488 10.0715 22.0637 12.5004 22.0637C15.322 22.0637 17.9748 20.9649 19.97 18.9696C21.8466 17.0931 22.9299 14.6348 23.0521 12.0014H24.3842C24.912 12.0014 25.1945 11.3802 24.8477 10.9824Z" fill="white"/>
</svg>
