<svg viewBox="0 0 12 12" >
<path d="M10.128 0.242675C10.1249 0.243534 10.1215 0.244393 10.1183 0.244966C10.084 0.253554 10.0493 0.262143 10.0147 0.271304C10.0081 0.273022 10.0015 0.274453 9.99492 0.276171C9.95542 0.286477 9.91537 0.297356 9.875 0.308234C9.96346 0.757987 10.1805 1.16508 10.5077 1.49231C10.8349 1.81924 11.242 2.03653 11.6918 2.12499C11.692 2.12385 11.6923 2.1227 11.6926 2.12156C11.6929 2.12013 11.6932 2.11898 11.6938 2.11755C11.7038 2.08091 11.7135 2.04455 11.723 2.00848C11.7255 1.99817 11.7281 1.98815 11.7307 1.97784C11.7382 1.9495 11.7453 1.92116 11.7522 1.8931C11.7545 1.88337 11.7571 1.87335 11.7594 1.86362C11.7774 1.79004 11.794 1.7179 11.8091 1.64719C11.8111 1.63831 11.8132 1.62944 11.8149 1.62056C11.8209 1.59336 11.8263 1.56645 11.8318 1.54011C11.8338 1.53067 11.8358 1.52122 11.8375 1.51177C11.8438 1.48028 11.8501 1.44936 11.8558 1.41844C11.8564 1.41587 11.8569 1.41329 11.8575 1.41071C11.8638 1.37665 11.8699 1.34315 11.8759 1.30994C11.877 1.3025 11.8784 1.29534 11.8796 1.2879C11.8842 1.26213 11.8885 1.23665 11.8928 1.21146C11.8942 1.20287 11.8957 1.19428 11.8971 1.1857C11.9013 1.1585 11.9056 1.13187 11.9096 1.10525C11.9102 1.10096 11.9111 1.09637 11.9116 1.09208C11.9162 1.06088 11.9208 1.03024 11.9251 0.999897C11.9259 0.994171 11.9265 0.988446 11.9274 0.98272C11.9308 0.958672 11.934 0.934624 11.9371 0.911149C11.938 0.903419 11.9391 0.895689 11.94 0.88796C11.9429 0.864484 11.9457 0.841295 11.9486 0.818393C11.9492 0.81324 11.9497 0.808087 11.9503 0.802933C11.9538 0.774878 11.9566 0.747394 11.9595 0.720484C11.9601 0.716762 11.9603 0.71304 11.9606 0.709319C11.9632 0.686416 11.9652 0.664086 11.9675 0.642042C11.9681 0.635171 11.9686 0.628586 11.9692 0.622002C11.9712 0.601676 11.9729 0.581922 11.9746 0.562168C11.9752 0.557015 11.9755 0.551862 11.9761 0.546709C11.9781 0.522375 11.9801 0.498327 11.9818 0.475138C11.9818 0.473134 11.9818 0.471416 11.9821 0.469412C11.9835 0.448514 11.985 0.427901 11.9864 0.407861C11.9867 0.402136 11.9869 0.39641 11.9875 0.390684C11.9884 0.373794 11.9895 0.357475 11.9904 0.341443C11.9907 0.336577 11.991 0.331423 11.9912 0.32627C11.9932 0.285618 11.995 0.247256 11.9964 0.211757C11.9964 0.20689 11.9967 0.202023 11.997 0.197442C11.9973 0.184273 11.9976 0.171391 11.9981 0.158794C11.9981 0.154214 11.9984 0.149633 11.9984 0.145339C11.9987 0.130452 11.999 0.116424 11.9993 0.102682V0.0986745C11.9996 0.084074 11.9999 0.0703323 11.9999 0.0571633C11.9999 0.052869 12.0001 0.0485748 12.0001 0.0442805V0.000192734C11.7218 -0.000379834 11.0238 0.0239543 10.128 0.242675Z" />
<path d="M4.7035 9.06765C4.70321 9.06768 4.70321 9.06739 4.70321 9.06739L2.79312 7.15759L2.57812 7.37231L2.91709 7.71127C2.91709 7.71127 2.91709 7.71127 2.91737 7.71127L4.28839 9.08257C4.28839 9.08257 4.2887 9.08257 4.2887 9.08285L4.62735 9.42153L4.84238 9.20653L4.7035 9.06765Z" />
<path d="M2.55995 4.08662C1.48184 4.60078 0.622124 5.60163 0 7.06457C0.682215 6.59962 2.09162 5.79888 3.26281 6.16965C3.63269 5.26983 4.08101 4.44819 4.59775 3.72218C4.11823 3.67809 3.36558 3.70242 2.55995 4.08662Z" />
<path d="M2.81541 8.01488L2.37109 8.4592L3.53995 9.62806L3.98427 9.18374L2.81541 8.01488Z" />
<path d="M8.27791 7.40207C7.55187 7.91881 6.72995 8.36713 5.83047 8.73701C6.20121 9.90791 5.40044 11.3173 4.93555 11.9998C6.39846 11.3777 7.39931 10.518 7.91347 9.43984C8.29767 8.63424 8.32203 7.88134 8.27791 7.40207Z" />
<path d="M10.3054 1.69475C9.94376 1.33314 9.70216 0.884249 9.59993 0.388977C8.28245 0.797791 6.46111 1.7013 4.971 3.69585C4.38329 4.48284 3.88055 5.3938 3.47663 6.40355C3.37955 6.64629 3.28682 6.90025 3.19922 7.15848L4.84163 8.80089C5.10072 8.71326 5.35437 8.62022 5.59628 8.52348C5.59656 8.52348 5.59656 8.52348 5.59656 8.52348C6.60631 8.11982 7.51724 7.61682 8.30424 7.02908C10.2988 5.53897 11.2023 3.71763 11.6111 2.40015C11.1158 2.29795 10.667 2.05632 10.3054 1.69475ZM8.02969 4.96151C7.48317 4.96151 7.03857 4.51691 7.03857 3.97039C7.03857 3.42388 7.48317 2.97899 8.02969 2.97899C8.57621 2.97899 9.02109 3.42388 9.02109 3.97039C9.02109 4.51691 8.57621 4.96151 8.02969 4.96151Z" />
<path d="M2.41293 9.58712C2.35705 9.53124 2.26644 9.53121 2.2105 9.58712L0.421795 11.3758C0.365912 11.4317 0.365912 11.5223 0.421795 11.5782C0.449765 11.6062 0.486381 11.6201 0.523025 11.6201C0.559641 11.6201 0.596285 11.6062 0.624226 11.5782L2.41293 9.78952C2.46884 9.73364 2.46884 9.643 2.41293 9.58712Z" />
<path d="M3.0989 10.2734C3.04302 10.2176 2.95241 10.2176 2.89647 10.2734L1.72846 11.4415C1.67255 11.4973 1.67255 11.588 1.72846 11.6439C1.75643 11.6718 1.79304 11.6858 1.82966 11.6858C1.86627 11.6858 1.90295 11.6718 1.93089 11.6439L3.0989 10.4759C3.15481 10.42 3.15481 10.3293 3.0989 10.2734Z" />
<path d="M4.35909 10.3866C4.30318 10.3307 4.21257 10.3307 4.15666 10.3866L2.93254 11.6107C2.87665 11.6666 2.87665 11.7572 2.93254 11.8131C2.96051 11.8411 2.99712 11.855 3.03377 11.855C3.07038 11.855 3.10703 11.8411 3.13497 11.8131L4.35909 10.589C4.41497 10.5331 4.41497 10.4425 4.35909 10.3866Z" />
<path d="M1.613 7.64121C1.55709 7.5853 1.46648 7.5853 1.41057 7.64121L0.186443 8.86533C0.130561 8.92121 0.130561 9.01185 0.186443 9.06773C0.214413 9.0957 0.251029 9.10967 0.287673 9.10967C0.324289 9.10967 0.360933 9.0957 0.388875 9.06773L1.613 7.84361C1.66888 7.78773 1.66888 7.69709 1.613 7.64121Z" />
<path d="M1.72678 8.90072C1.67087 8.84487 1.58023 8.84484 1.52435 8.90075L0.356365 10.0688C0.300482 10.1247 0.300482 10.2153 0.356365 10.2712C0.384335 10.2992 0.420951 10.3131 0.457595 10.3131C0.494211 10.3131 0.530855 10.2992 0.558797 10.2712L1.72678 9.10316C1.78266 9.04727 1.78266 8.95663 1.72678 8.90072Z" />
</svg>

