<svg viewBox="0 0 35 35" >
<path fill-rule="evenodd" clip-rule="evenodd" d="M33.1064 0.69043H1.89355C0.849434 0.69043 0 1.53979 0 2.58398V24.6818C0 25.726 0.849434 26.5754 1.89355 26.5754H4.92188C5.20509 26.5754 5.43457 26.3459 5.43457 26.0627C5.43457 25.7795 5.20509 25.55 4.92188 25.55H1.89355C1.41483 25.55 1.02539 25.1606 1.02539 24.6818V2.58398C1.02539 2.10526 1.41483 1.71582 1.89355 1.71582H33.1064C33.5852 1.71582 33.9746 2.10526 33.9746 2.58398V24.6818C33.9746 25.1606 33.5852 25.55 33.1064 25.55H7.31445C7.03124 25.55 6.80176 25.7795 6.80176 26.0627C6.80176 26.3459 7.03124 26.5754 7.31445 26.5754H12.8133C12.7157 27.4758 12.313 29.4264 10.6626 31.0742H8.93731C8.42611 31.0742 8.01028 31.49 8.01028 32.0011V33.3827C8.01028 33.8939 8.42611 34.3097 8.93731 34.3097H21.6897C21.973 34.3097 22.2024 34.0802 22.2024 33.797C22.2024 33.5138 21.973 33.2843 21.6897 33.2843H9.03574V32.0996H25.9643V33.2843H24.0823C23.7991 33.2843 23.5696 33.5138 23.5696 33.797C23.5696 34.0802 23.7991 34.3097 24.0823 34.3097H26.0627C26.5739 34.3097 26.9897 33.8939 26.9897 33.3827V32.0011C26.9897 31.49 26.5739 31.0742 26.0627 31.0742H24.3375C22.6962 29.4345 22.2891 27.4779 22.1886 26.5754H33.1064C34.1506 26.5754 35 25.726 35 24.6818V2.58398C35 1.53979 34.1506 0.69043 33.1064 0.69043ZM22.9644 31.0741H12.0356C13.4269 29.3236 13.7644 27.4617 13.8449 26.5753H21.155C21.2356 27.4618 21.5731 29.3236 22.9644 31.0741ZM28.8674 22.2939H32.2772C32.5604 22.2939 32.7898 22.0645 32.7898 21.7812V3.41309C32.7898 3.12987 32.5604 2.90039 32.2772 2.90039H2.72266C2.43944 2.90039 2.20996 3.12987 2.20996 3.41309V21.7812C2.20996 22.0645 2.43944 22.2939 2.72266 22.2939H26.4748C26.758 22.2939 26.9875 22.0645 26.9875 21.7812C26.9875 21.498 26.758 21.2686 26.4748 21.2686H3.23535V3.92578H31.7645V21.2686H28.8674C28.5842 21.2686 28.3547 21.498 28.3547 21.7812C28.3547 22.0645 28.5842 22.2939 28.8674 22.2939ZM8.10914 5.73145C8.39235 5.73145 8.62184 5.96093 8.62184 6.24414V9.00627C8.62184 9.28948 8.39235 9.51896 8.10914 9.51896H4.93262C4.6494 9.51896 4.41992 9.28948 4.41992 9.00627V6.24414C4.41992 5.96093 4.6494 5.73145 4.93262 5.73145H8.10914ZM5.44531 8.49357H7.59645V6.75684H5.44531V8.49357ZM10.8711 9.51953H19.4338C19.717 9.51953 19.9465 9.29005 19.9465 9.00684C19.9465 8.72362 19.717 8.49414 19.4338 8.49414H10.8711C10.5879 8.49414 10.3584 8.72362 10.3584 9.00684C10.3584 9.29005 10.5879 9.51953 10.8711 9.51953ZM14.876 5.73145H21.9195C22.2027 5.73145 22.4321 5.96093 22.4321 6.24414C22.4321 6.52735 22.2027 6.75684 21.9195 6.75684H14.876C14.5928 6.75684 14.3633 6.52735 14.3633 6.24414C14.3633 5.96093 14.5928 5.73145 14.876 5.73145ZM10.8711 6.75684H12.4593C12.7425 6.75684 12.972 6.52735 12.972 6.24414C12.972 5.96093 12.7425 5.73145 12.4593 5.73145H10.8711C10.5879 5.73145 10.3584 5.96093 10.3584 6.24414C10.3584 6.52735 10.5879 6.75684 10.8711 6.75684ZM8.10914 10.7031C8.39235 10.7031 8.62184 10.9326 8.62184 11.2158V13.9779C8.62184 14.2612 8.39235 14.4906 8.10914 14.4906H4.93262C4.6494 14.4906 4.41992 14.2612 4.41992 13.9779V11.2158C4.41992 10.9326 4.6494 10.7031 4.93262 10.7031H8.10914ZM5.44531 13.4653H7.59645V11.7285H5.44531V13.4653ZM10.8711 14.4912H19.4338C19.717 14.4912 19.9465 14.2617 19.9465 13.9785C19.9465 13.6953 19.717 13.4658 19.4338 13.4658H10.8711C10.5879 13.4658 10.3584 13.6953 10.3584 13.9785C10.3584 14.2617 10.5879 14.4912 10.8711 14.4912ZM14.876 10.7031H21.9195C22.2027 10.7031 22.4321 10.9326 22.4321 11.2158C22.4321 11.499 22.2027 11.7285 21.9195 11.7285H14.876C14.5928 11.7285 14.3633 11.499 14.3633 11.2158C14.3633 10.9326 14.5928 10.7031 14.876 10.7031ZM10.8711 11.7285H12.4593C12.7425 11.7285 12.972 11.499 12.972 11.2158C12.972 10.9326 12.7425 10.7031 12.4593 10.7031H10.8711C10.5879 10.7031 10.3584 10.9326 10.3584 11.2158C10.3584 11.499 10.5879 11.7285 10.8711 11.7285ZM4.93262 15.6748H8.10914C8.39235 15.6748 8.62184 15.9043 8.62184 16.1875V18.9497C8.62184 19.2329 8.39235 19.4624 8.10914 19.4624H4.93262C4.6494 19.4624 4.41992 19.2329 4.41992 18.9497V16.1875C4.41992 15.9043 4.6494 15.6748 4.93262 15.6748ZM5.44531 18.437H7.59645V16.7002H5.44531V18.437ZM10.8711 19.4629H19.4338C19.717 19.4629 19.9465 19.2334 19.9465 18.9502C19.9465 18.667 19.717 18.4375 19.4338 18.4375H10.8711C10.5879 18.4375 10.3584 18.667 10.3584 18.9502C10.3584 19.2334 10.5879 19.4629 10.8711 19.4629ZM21.9195 15.6748C22.2027 15.6748 22.4321 15.9043 22.4321 16.1875C22.4321 16.4706 22.2027 16.7002 21.9195 16.7002H14.876C14.5928 16.7002 14.3633 16.4707 14.3633 16.1875C14.3633 15.9043 14.5928 15.6748 14.876 15.6748H21.9195ZM10.8711 16.7002H12.4593C12.7425 16.7002 12.972 16.4707 12.972 16.1875C12.972 15.9043 12.7425 15.6748 12.4593 15.6748H10.8711C10.5879 15.6748 10.3584 15.9043 10.3584 16.1875C10.3584 16.4707 10.5879 16.7002 10.8711 16.7002ZM30.2149 14.3023C30.4237 14.3649 30.57 14.5527 30.5797 14.7705C30.5894 14.9883 30.4604 15.1885 30.258 15.2694L27.4926 16.3755L26.3866 19.1408C26.3084 19.3361 26.1194 19.4631 25.9107 19.4631C25.9031 19.4631 25.8953 19.463 25.8877 19.4626C25.6699 19.4529 25.482 19.3066 25.4194 19.0977L23.6378 13.1591C23.5836 12.9784 23.6331 12.7826 23.7664 12.6492C23.8998 12.5159 24.0954 12.4664 24.2763 12.5207L30.2149 14.3023ZM26.6221 15.7907C26.6743 15.6604 26.7775 15.5572 26.9078 15.5051L28.5141 14.8626L24.8936 13.7764L25.9798 17.3969L26.6221 15.7907Z" />
</svg>
