<svg viewBox="0 0 35 33"  >
<path fill-rule="evenodd" clip-rule="evenodd" d="M17.574 20.2339C17.4661 20.2339 17.3577 20.2101 17.2597 20.1652C9.42056 16.5491 8.00558 8.56524 7.75884 6.20444C7.70223 5.66504 7.99863 5.15982 8.49584 4.94727C10.0401 4.28664 11.0796 2.83534 11.2089 1.15973C11.2494 0.629143 11.6796 0.22673 12.2091 0.223793L22.7125 0.162109H22.7186C23.2377 0.162109 23.6783 0.563988 23.7234 1.07962C23.8698 2.75469 24.9248 4.19558 26.4768 4.83992C26.979 5.0482 27.2829 5.55075 27.2327 6.09042C27.0138 8.45389 25.6925 16.4535 17.8963 20.1612C17.7981 20.2082 17.688 20.2333 17.5783 20.2339H17.574ZM12.2302 1.24892C12.0682 3.30264 10.7926 5.08025 8.89906 5.88988C8.81761 5.92486 8.76901 6.00844 8.77836 6.09789C9.01014 8.3105 10.3269 15.7646 17.5722 19.1794C24.7761 15.6794 26.0063 8.21089 26.2119 5.99589C26.2201 5.90617 26.1686 5.82232 26.0837 5.78681C24.1833 4.998 22.8895 3.23668 22.7034 1.1875L12.2302 1.24892ZM17.6897 12.2565C17.5164 12.5179 17.1372 12.5617 16.9091 12.3452C16.9073 12.3436 14.7571 10.3021 14.7574 10.3021C14.5521 10.1072 14.5435 9.78276 14.7385 9.57741C14.9337 9.37207 15.2581 9.36352 15.4634 9.55845L17.1722 11.1809L20.2473 6.53996C20.4037 6.30417 20.722 6.23955 20.9578 6.39576C21.1939 6.55224 21.2585 6.87054 21.102 7.10659L17.6897 12.2565ZM10.1792 8.73235C10.2412 8.96039 10.5303 9.16921 10.8086 9.09257C11.0815 9.01727 11.243 8.73662 11.1688 8.46345C11.0382 7.98226 10.9285 7.4944 10.8422 7.01108C12.2351 6.10345 13.2687 4.74881 13.7758 3.16666L21.18 3.12314C21.7055 4.69888 22.7549 6.04176 24.1584 6.93284C24.0781 7.4175 23.9739 7.90696 23.8487 8.39002C23.7777 8.66426 23.9424 8.9441 24.2164 9.01513C24.4909 9.08616 24.7705 8.9214 24.8415 8.64716C24.9884 8.08 25.108 7.50428 25.1966 6.93604C25.2463 6.61855 25.101 6.30639 24.8271 6.14083C23.5197 5.35123 22.5533 4.11248 22.1061 2.6529C22.0054 2.32472 21.6959 2.09668 21.3525 2.09668H21.3477L13.5958 2.14207C13.2503 2.14421 12.9411 2.37679 12.8442 2.70737C12.4142 4.17203 11.4623 5.42199 10.1643 6.22708C9.89215 6.39558 9.75089 6.70934 9.80403 7.02657C9.89963 7.59347 10.0257 8.16731 10.1792 8.73235ZM23.1355 10.5302C23.2437 10.2685 23.5433 10.1436 23.805 10.252C24.0669 10.3598 24.1916 10.6595 24.0835 10.9211C22.7905 14.055 20.7253 16.4305 17.945 17.9817C17.8249 18.0487 17.693 18.0821 17.5608 18.0821C17.4318 18.0821 17.3026 18.0503 17.1845 17.9859C14.3831 16.4657 12.2886 14.1108 10.959 10.9871C10.8482 10.7267 10.9694 10.4255 11.2301 10.3147C11.4904 10.2039 11.7916 10.3251 11.9027 10.5855C13.1209 13.448 15.0237 15.6128 17.5592 17.022C20.0751 15.5851 21.9507 13.4018 23.1355 10.5302ZM3.29049 26.3965C2.29047 26.3965 1.47656 27.2101 1.47656 28.2104C1.47656 29.2107 2.29047 30.0243 3.29049 30.0243C4.29078 30.0243 5.10468 29.2107 5.10468 28.2104C5.10468 27.2101 4.29105 26.3965 3.29049 26.3965ZM3.29049 28.9989C2.85577 28.9989 2.50195 28.6454 2.50195 28.2104C2.50195 27.7757 2.85577 27.4219 3.29049 27.4219C3.72548 27.4219 4.07929 27.7757 4.07929 28.2104C4.07929 28.6454 3.72548 28.9989 3.29049 28.9989ZM31.683 20.8066C32.652 20.1556 33.9751 20.4114 34.6323 21.3769C35.2331 22.2597 35.0839 23.46 34.2854 24.169L27.5106 30.2623C27.5045 30.2677 27.4984 30.273 27.492 30.2784C26.7889 30.8517 25.9437 31.2306 25.0476 31.3734C25.0449 31.374 25.0425 31.3745 25.0398 31.3748C25.0398 31.3748 14.5528 32.8867 14.5501 32.887C13.6075 32.9759 13.0948 32.7842 13.0809 32.7788L6.76785 30.3881V30.7521C6.76785 31.425 6.22017 31.9727 5.54726 31.9727H1.22059C0.547676 31.9727 0 31.425 0 30.7521V17.5419C0 16.869 0.547676 16.3213 1.22059 16.3213H5.54726C6.22044 16.3213 6.76785 16.8687 6.76785 17.5419V18.8832C8.04638 18.9323 9.30489 19.2939 10.4219 19.9345C12.5709 21.1671 13.353 21.3916 13.5974 21.4298L20.8194 22.0627C20.8247 22.0631 20.83 22.0637 20.8352 22.0644C20.8389 22.0648 20.8426 22.0653 20.8464 22.0659C22.2739 22.2678 23.3706 23.4109 23.5132 24.8457L23.5498 25.212L24.9805 25.2924L31.683 20.8066ZM26.8345 29.4914L33.6021 23.4045C34.0187 23.0347 34.0961 22.412 33.7845 21.9537C33.4435 21.4528 32.757 21.3203 32.2541 21.6581L25.4081 26.2398C25.3157 26.3018 25.2054 26.3322 25.0943 26.3258L23.0841 26.2128C23.0841 26.2128 13.0564 26.8703 12.7397 26.8372C12.153 26.7763 11.6222 26.5063 11.2459 26.055C11.0643 25.8377 11.0937 25.5143 11.3113 25.333C11.5287 25.1514 11.8521 25.1808 12.0334 25.3984C12.2345 25.6393 12.5175 25.7875 12.831 25.8158L12.8502 25.8174L22.5201 25.2203L22.4929 24.9471C22.3976 23.9885 21.6675 23.2237 20.7153 23.083L13.4924 22.4501C13.4834 22.4491 13.4745 22.4483 13.4655 22.4469C13.2275 22.4133 12.5036 22.3107 9.91158 20.8242C8.94974 20.2722 7.86774 19.9582 6.76785 19.9096V21.1206C6.76785 21.4037 6.53847 21.6333 6.25515 21.6333C5.9721 21.6333 5.74246 21.4039 5.74246 21.1206V17.5419C5.74246 17.4343 5.65487 17.3467 5.54726 17.3467H1.22059C1.11298 17.3467 1.02539 17.4343 1.02539 17.5419V30.7521C1.02539 30.8597 1.11298 30.9473 1.22059 30.9473H5.54726C5.65487 30.9473 5.74246 30.8597 5.74246 30.7521V23.4365C5.74246 23.1532 5.97183 22.9238 6.25515 22.9238C6.5382 22.9238 6.76785 23.1532 6.76785 23.4365V29.2917L13.4225 31.8116C13.7533 31.9022 14.0799 31.923 14.3934 31.8736L14.3985 31.8728L14.4075 31.8714L24.8895 30.3603C25.6019 30.246 26.2743 29.9456 26.8345 29.4914Z"/>
</svg>
