<svg width="25" height="21" viewBox="0 0 25 21" fill="none" xmlns="http://www.w3.org/2000/svg">
<path d="M6.63617 13.6335C2.03742 13.607 -0.0204265 10.5524 0.000152767 7.15674C0.0200545 3.7604 2.11194 0.754807 6.71069 0.782415C11.3094 0.807822 13.3675 3.83823 13.3471 7.23457C13.3268 10.6297 11.235 13.6601 6.63617 13.6335ZM6.69155 4.17766C4.92224 4.16699 4.67631 5.8876 4.66852 7.18367C4.66157 8.48042 4.88684 10.2275 6.65539 10.2384C8.42352 10.2479 8.67055 8.50515 8.67826 7.20696C8.68579 5.90979 8.4601 4.18723 6.69155 4.17766Z" fill="#0073B9"/>
<path d="M18.223 13.6346C13.6254 13.607 11.5678 10.5523 11.588 7.15674C11.6069 3.76142 13.6997 0.754723 18.2978 0.782416C22.8961 0.808924 24.9542 3.83925 24.935 7.23457C24.9147 10.6308 22.8217 13.6604 18.223 13.6346ZM18.2783 4.17757C16.51 4.1669 16.2643 5.8876 16.2569 7.18469C16.2484 8.48153 16.474 10.2276 18.2434 10.2383C20.0104 10.249 20.2577 8.50507 20.265 7.20798C20.2725 5.91081 20.0465 4.18723 18.2783 4.17757Z" fill="#0073B9"/>
<path d="M1.75121 13.6348C5.06642 15.1159 8.50672 15.7735 12.2551 15.7949C16.193 15.8181 19.1791 15.0745 22.9594 13.6348L22.9374 17.7141C19.5539 19.3921 15.8848 20.2967 12.2284 20.2756C8.24384 20.2521 5.37197 19.4337 1.72656 17.7141L1.75121 13.6348Z" fill="#0073B9"/>
</svg>
