<svg viewBox="0 0 12 12" >
<path d="M11.4992 2.9266L8.43271 0.106223C8.27051 -0.04299 8.01841 -0.0339085 7.86736 0.12657L7.7727 0.227156C7.61917 0.390278 7.62843 0.647434 7.79333 0.799061L7.85932 0.8597L0.476571 8.70279C0.15297 9.0465 -0.0158422 9.49569 0.00117126 9.96747C0.0181847 10.4392 0.218897 10.8751 0.566351 11.1947L0.93875 11.5372C1.26327 11.8357 1.68458 12 2.12521 12C2.60676 12 3.07216 11.799 3.40202 11.4485L10.8125 3.57593L10.8598 3.61944C11.022 3.76866 11.2741 3.75957 11.4252 3.5991L11.5199 3.49851C11.6734 3.33539 11.6641 3.07823 11.4992 2.9266ZM7.10561 6.67537L4.39139 5.38246L8.17774 1.35999L10.2848 3.29797L7.10561 6.67537Z" />
</svg>
