<svg width="20" height="20" viewBox="0 0 20 20" fill="none" xmlns="http://www.w3.org/2000/svg">
<path d="M6.99229 4.29197C7.14622 3.52234 7.22318 3.13752 7.49966 2.91086C7.77614 2.6842 8.16857 2.6842 8.95345 2.6842L11.5668 2.6842C12.3517 2.6842 12.7441 2.6842 13.0206 2.91086C13.2971 3.13752 13.374 3.52234 13.528 4.29197L13.9601 6.45271C14.0741 7.02254 14.1311 7.30746 14.2077 7.58523C14.383 8.21988 14.6359 8.83047 14.9608 9.40315C15.1029 9.6538 15.2641 9.89556 15.5865 10.3791L16.0366 11.0543C16.37 11.5544 16.0822 12.2322 15.4909 12.3397V12.3397C12.0321 12.9686 8.48816 12.9686 5.02931 12.3397V12.3397C4.43804 12.2322 4.15026 11.5544 4.48362 11.0543L4.93379 10.3791C5.25613 9.89556 5.41731 9.6538 5.55948 9.40315C5.88434 8.83047 6.13726 8.21988 6.3125 7.58523C6.38919 7.30746 6.44618 7.02254 6.56014 6.45271L6.99229 4.29197Z"/>
<path d="M10.2617 18.5943L10.2617 13.291" stroke-linecap="round"/>
</svg>
